<svg width="400" height="482" viewBox="0 0 400 482" fill="none" xmlns="http://www.w3.org/2000/svg">
<g clip-path="url(#clip0_7_30)">
<mask id="mask0_7_30" style="mask-type:alpha" maskUnits="userSpaceOnUse" x="-261" y="0" width="671" height="504">
<path d="M409.697 -3.05176e-05H-260.606V503.03H409.697V-3.05176e-05Z" fill="white"/>
</mask>
<g mask="url(#mask0_7_30)">
<path d="M158.333 419.481C158.333 465.783 120.82 503.32 74.5456 503.32V419.481H158.333Z" fill="#3699FF"/>
<path d="M325.909 335.642C279.635 335.642 242.121 298.107 242.121 251.805H325.909V335.642Z" fill="#D6DA34"/>
<path d="M75.1516 521.212C18.9184 521.212 -26.6666 475.627 -26.6666 419.394H75.1516V521.212Z" fill="#6ED47C"/>
<path d="M74.5456 462.268C50.9291 462.268 31.7849 443.112 31.7849 419.481H74.5456V462.268Z" fill="#D5E155"/>
<path d="M408.44 42.3384H366.547C343.408 42.3384 324.652 61.1063 324.652 84.2576H366.547C389.684 84.2576 408.44 65.4897 408.44 42.3384Z" fill="#6ED47C"/>
<path d="M158.333 377.562H200.016C223.269 377.562 242.121 396.33 242.121 419.481H200.439C177.184 419.481 158.333 400.713 158.333 377.562Z" fill="#6ED47C"/>
<path d="M242.121 503.32V419.481C242.121 373.179 279.635 335.642 325.909 335.642V419.481C325.909 465.783 288.395 503.32 242.121 503.32Z" fill="#6ED47C"/>
<path d="M284.015 419.192V377.628C284.015 354.44 302.772 335.642 325.909 335.642V377.206C325.909 400.394 307.153 419.192 284.015 419.192Z" fill="#2D3652"/>
<path d="M217.274 335.354C217.274 321.463 228.527 310.202 242.41 310.202C256.293 310.202 267.547 321.463 267.547 335.354C267.547 349.245 256.293 360.505 242.41 360.505C228.527 360.505 217.274 349.245 217.274 335.354Z" fill="#FF743C"/>
<path d="M229.987 335.498C229.987 328.553 235.613 322.922 242.555 322.922C249.496 322.922 255.123 328.553 255.123 335.498C255.123 342.444 249.496 348.074 242.555 348.074C235.613 348.074 229.987 342.444 229.987 335.498Z" fill="#FFC700"/>
<path d="M325.909 209.596C325.909 186.445 307.153 167.676 284.015 167.676C260.878 167.676 242.121 186.445 242.121 209.596C242.121 232.747 260.878 251.515 284.015 251.515H325.909V209.596Z" fill="#FF743C"/>
<path d="M324.849 83.6364V113.939C324.849 130.675 311.281 144.242 294.546 144.242V113.939C294.546 97.2036 308.113 83.6364 324.849 83.6364Z" fill="#A04AE3"/>
<path d="M325.909 229.833C325.909 217.858 316.207 208.15 304.239 208.15C292.272 208.15 282.571 217.858 282.571 229.833C282.571 241.807 292.272 251.515 304.239 251.515H325.909V229.833Z" fill="#FFC700"/>
<path d="M158.333 461.4C158.333 438.25 177.09 419.481 200.228 419.481C223.365 419.481 242.121 438.25 242.121 461.4C242.121 484.552 223.365 503.32 200.228 503.32C177.09 503.32 158.333 484.552 158.333 461.4Z" fill="#FF743C"/>
<path d="M177.114 460.967C177.114 448.114 187.527 437.695 200.372 437.695C213.217 437.695 223.63 448.114 223.63 460.967C223.63 473.819 213.217 484.239 200.372 484.239C187.527 484.239 177.114 473.819 177.114 460.967Z" fill="#2D3652"/>
<path d="M325.621 167.676C325.621 121.374 363.133 83.8384 409.409 83.8384V167.676H325.621Z" fill="#FF743C"/>
<path d="M409.409 335.354C363.133 335.354 325.621 297.817 325.621 251.515H409.409V335.354Z" fill="#3699FF"/>
<path d="M325.621 251.515C325.621 205.212 363.133 167.676 409.409 167.676V251.515H325.621Z" fill="#6ED47C"/>
<path d="M366.647 251.515C366.647 227.884 385.791 208.728 409.408 208.728V251.515H366.647Z" fill="#D5E155"/>
<path d="M325.909 461.53C325.909 484.681 344.666 503.45 367.804 503.45C390.941 503.45 409.697 484.681 409.697 461.53C409.697 438.379 390.941 419.611 367.804 419.611H325.909V461.53Z" fill="#FFC700"/>
<path d="M325.909 441.293C325.909 453.268 335.611 462.976 347.579 462.976C359.547 462.976 369.247 453.268 369.247 441.293C369.247 429.319 359.547 419.611 347.579 419.611H325.909V441.293Z" fill="#FF743C"/>
<path d="M367.514 335.354C390.651 335.354 409.409 354.121 409.409 377.273C409.409 400.424 390.651 419.192 367.514 419.192C344.377 419.192 325.621 400.424 325.621 377.273C325.621 354.121 344.377 335.354 367.514 335.354Z" fill="#FF743C"/>
<path d="M367.948 354.144C380.793 354.144 391.206 364.565 391.206 377.417C391.206 390.27 380.793 400.69 367.948 400.69C355.103 400.69 344.69 390.27 344.69 377.417C344.69 364.565 355.103 354.144 367.948 354.144Z" fill="#2D3652"/>
<path d="M37.5759 358.788H98.1819C131.653 358.788 158.788 385.922 158.788 419.394H98.1819C64.7104 419.394 37.5759 392.259 37.5759 358.788Z" fill="#A04AE3"/>
<path d="M98.1819 389.091H128.332C145.152 389.091 158.788 402.658 158.788 419.394H128.638C111.817 419.394 98.1819 405.827 98.1819 389.091Z" fill="#6ED47C"/>
</g>
</g>
<defs>
<clipPath id="clip0_7_30">
<rect width="400" height="482.424" fill="white"/>
</clipPath>
</defs>
</svg>
