<svg width="32" height="32" viewBox="0 0 32 32" fill="none" xmlns="http://www.w3.org/2000/svg">
<path opacity="0.3" d="M10.6697 25.1429C10.912 28.4252 13.4492 31.2412 16.72 31.6069C17.632 31.7097 18.5577 31.776 19.4926 31.776C20.4274 31.776 21.3532 31.7075 22.2652 31.6069C25.5337 31.2412 28.0709 28.4252 28.3154 25.1452C28.4549 23.2595 28.5669 21.3303 28.5669 19.3692C28.5669 17.408 28.4549 15.4766 28.3154 13.5932C28.0686 10.3086 25.5314 7.49488 22.2629 7.12916C21.3425 7.02174 20.4169 6.96527 19.4903 6.96002C18.5532 6.96002 17.6297 7.02859 16.7177 7.12916C13.4492 7.49488 10.912 10.3109 10.6674 13.5932C10.5257 15.4766 10.416 17.4057 10.416 19.3692C10.416 21.3303 10.5257 23.2595 10.6674 25.1452L10.6697 25.1429Z" fill="#3699FF"/>
<path fill-rule="evenodd" clip-rule="evenodd" d="M15.6891 3.65257C11.04 3.65257 6.86168 7.92229 6.86168 12.4777C6.86168 12.9324 6.68107 13.3684 6.35957 13.6899C6.03808 14.0114 5.60205 14.192 5.14739 14.192C4.69273 14.192 4.2567 14.0114 3.93521 13.6899C3.61372 13.3684 3.43311 12.9324 3.43311 12.4777C3.43311 6.05257 9.12453 0.223999 15.6891 0.223999C16.1438 0.223999 16.5798 0.404611 16.9013 0.726102C17.2228 1.04759 17.4034 1.48363 17.4034 1.93828C17.4034 2.39294 17.2228 2.82898 16.9013 3.15047C16.5798 3.47196 16.1438 3.65257 15.6891 3.65257Z" fill="#3699FF"/>
<path fill-rule="evenodd" clip-rule="evenodd" d="M19.4925 6.96C18.5554 6.96 17.632 7.02857 16.72 7.12914C13.4514 7.49486 10.9142 10.3109 10.6697 13.5931C10.5557 15.0577 10.478 16.5248 10.4365 17.9931C12.1142 17.984 15.1154 17.9863 17.2022 17.9931C17.5032 17.9937 17.8013 17.9349 18.0794 17.82C18.3576 17.7051 18.6103 17.5365 18.8231 17.3237C19.0359 17.1109 19.2045 16.8582 19.3194 16.58C19.4343 16.3019 19.4931 16.0038 19.4925 15.7029V6.96Z" fill="#3699FF"/>
</svg>
