<svg width="17" height="18" viewBox="0 0 17 18" fill="none" xmlns="http://www.w3.org/2000/svg">
<path d="M6.66667 2.91667H10C10 2.47464 9.8244 2.05072 9.51184 1.73816C9.19928 1.42559 8.77536 1.25 8.33333 1.25C7.89131 1.25 7.46738 1.42559 7.15482 1.73816C6.84226 2.05072 6.66667 2.47464 6.66667 2.91667ZM5.41667 2.91667C5.41667 2.53364 5.49211 2.15437 5.63868 1.80051C5.78526 1.44664 6.0001 1.12511 6.27094 0.854272C6.54178 0.583434 6.86331 0.368594 7.21717 0.222018C7.57104 0.0754418 7.95031 0 8.33333 0C8.71636 0 9.09563 0.0754418 9.44949 0.222018C9.80336 0.368594 10.1249 0.583434 10.3957 0.854272C10.6666 1.12511 10.8814 1.44664 11.028 1.80051C11.1746 2.15437 11.25 2.53364 11.25 2.91667H16.0417C16.2074 2.91667 16.3664 2.98251 16.4836 3.09972C16.6008 3.21694 16.6667 3.37591 16.6667 3.54167C16.6667 3.70743 16.6008 3.8664 16.4836 3.98361C16.3664 4.10082 16.2074 4.16667 16.0417 4.16667H14.9417L13.9667 14.2592C13.8919 15.0325 13.5317 15.7502 12.9564 16.2724C12.3811 16.7945 11.6319 17.0836 10.855 17.0833H5.81167C5.03489 17.0834 4.28592 16.7942 3.71079 16.2721C3.13566 15.7499 2.77561 15.0323 2.70083 14.2592L1.725 4.16667H0.625C0.45924 4.16667 0.300268 4.10082 0.183058 3.98361C0.0658479 3.8664 0 3.70743 0 3.54167C0 3.37591 0.0658479 3.21694 0.183058 3.09972C0.300268 2.98251 0.45924 2.91667 0.625 2.91667H5.41667ZM7.08333 6.875C7.08333 6.70924 7.01748 6.55027 6.90027 6.43306C6.78306 6.31585 6.62409 6.25 6.45833 6.25C6.29257 6.25 6.1336 6.31585 6.01639 6.43306C5.89918 6.55027 5.83333 6.70924 5.83333 6.875V13.125C5.83333 13.2908 5.89918 13.4497 6.01639 13.5669C6.1336 13.6842 6.29257 13.75 6.45833 13.75C6.62409 13.75 6.78306 13.6842 6.90027 13.5669C7.01748 13.4497 7.08333 13.2908 7.08333 13.125V6.875ZM10.2083 6.25C10.3741 6.25 10.5331 6.31585 10.6503 6.43306C10.7675 6.55027 10.8333 6.70924 10.8333 6.875V13.125C10.8333 13.2908 10.7675 13.4497 10.6503 13.5669C10.5331 13.6842 10.3741 13.75 10.2083 13.75C10.0426 13.75 9.8836 13.6842 9.76639 13.5669C9.64918 13.4497 9.58333 13.2908 9.58333 13.125V6.875C9.58333 6.70924 9.64918 6.55027 9.76639 6.43306C9.8836 6.31585 10.0426 6.25 10.2083 6.25ZM3.945 14.1392C3.98995 14.603 4.20604 15.0335 4.55114 15.3468C4.89624 15.66 5.34562 15.8334 5.81167 15.8333H10.855C11.321 15.8334 11.7704 15.66 12.1155 15.3468C12.4606 15.0335 12.6767 14.603 12.7217 14.1392L13.6867 4.16667H2.98L3.945 14.1392Z" fill="#0D0F17"/>
</svg>
