<svg width="20" height="20" viewBox="0 0 20 20" fill="none" xmlns="http://www.w3.org/2000/svg">
<path opacity="0.3" d="M18.3333 11.6667V9.83167C18.3333 7.63834 18.3333 6.54084 17.6916 5.82834C17.6328 5.76259 17.5704 5.7 17.505 5.64084C16.7925 5.00001 15.695 5.00001 13.5016 5.00001H13.19C12.2291 5.00001 11.7483 5.00001 11.3 4.87251C11.0539 4.80218 10.8168 4.70375 10.5933 4.57917C10.1866 4.35334 9.84663 4.01251 9.16663 3.33334L8.70829 2.87501C8.47996 2.64667 8.36663 2.53334 8.24663 2.43334C7.73051 2.00554 7.09741 1.74329 6.42996 1.68084C6.27496 1.66667 6.11329 1.66667 5.79163 1.66667C5.05579 1.66667 4.68829 1.66667 4.38163 1.72501C3.72316 1.84936 3.11746 2.16929 2.64355 2.64305C2.16964 3.11681 1.84952 3.72241 1.72496 4.38084C1.66663 4.68834 1.66663 5.05667 1.66663 5.79167V11.6667C1.66663 14.8092 1.66663 16.3808 2.64329 17.3567C3.61996 18.3325 5.19079 18.3333 8.33329 18.3333H11.6666C14.8091 18.3333 16.3808 18.3333 17.3566 17.3567C18.3325 16.38 18.3333 14.8092 18.3333 11.6667Z" fill="#0D0F17"/>
<path d="M10.2084 8.33333C10.2084 8.16757 10.2742 8.0086 10.3914 7.89139C10.5086 7.77418 10.6676 7.70833 10.8334 7.70833H15C15.1658 7.70833 15.3248 7.77418 15.442 7.89139C15.5592 8.0086 15.625 8.16757 15.625 8.33333C15.625 8.49909 15.5592 8.65806 15.442 8.77527C15.3248 8.89248 15.1658 8.95833 15 8.95833H10.8334C10.6676 8.95833 10.5086 8.89248 10.3914 8.77527C10.2742 8.65806 10.2084 8.49909 10.2084 8.33333Z" fill="#0D0F17"/>
</svg>
