<svg width="32" height="32" viewBox="0 0 32 32" fill="none" xmlns="http://www.w3.org/2000/svg">
<path opacity="0.3" d="M5.0905 2.43767C5.5495 1.97364 6.1915 1.67233 7.4065 1.5066C8.6575 1.33636 10.3135 1.33334 12.6895 1.33334H19.3105C21.6865 1.33334 23.3425 1.33636 24.5935 1.5066C25.8085 1.67233 26.4505 1.97364 26.9095 2.43767C27.367 2.90171 27.6655 3.55255 27.829 4.78344C27.997 6.04897 28 7.72882 28 10.1348V25.4388H9.139C7.513 25.4388 6.946 25.4478 6.5095 25.5413C5.74 25.707 5.0695 26.064 4.582 26.5461C4.417 26.7089 4.336 26.7887 4.1455 27.307C4.05547 27.5272 4.00616 27.762 4 28V10.1348C4 7.72882 4.003 6.05048 4.171 4.78344C4.3345 3.55406 4.633 2.90171 5.0905 2.43767Z" fill="white"/>
<path d="M9.1384 24.9101H28C27.9955 26.2485 27.967 27.2458 27.8305 28.033C27.6655 28.9728 27.3655 29.4693 26.9065 29.8233C26.446 30.1774 25.8009 30.4091 24.5814 30.5343C23.3259 30.6638 21.6623 30.6667 19.2772 30.6667H12.632C10.2469 30.6667 8.58188 30.6652 7.32784 30.5343C6.1083 30.4091 5.46328 30.1774 5.00277 29.8233C4.54225 29.4693 4.24374 28.9728 4.07874 28.0345L4.04574 27.8171C3.98574 27.3983 3.95573 27.1882 4.14474 26.6946C4.33525 26.1995 4.41625 26.1233 4.58125 25.9678C5.11609 25.4792 5.78452 25.1463 6.50882 25.0079C6.94383 24.9187 7.51385 24.9101 9.1384 24.9101Z" fill="white"/>
<path d="M8.87439 9.07937C8.87439 8.7931 8.99292 8.51856 9.20391 8.31614C9.41489 8.11372 9.70105 8 9.99943 8H21.9998C22.2982 8 22.5843 8.11372 22.7953 8.31614C23.0063 8.51856 23.1248 8.7931 23.1248 9.07937C23.1248 9.36563 23.0063 9.64017 22.7953 9.84259C22.5843 10.045 22.2982 10.1587 21.9998 10.1587H9.99943C9.70105 10.1587 9.41489 10.045 9.20391 9.84259C8.99292 9.64017 8.87439 9.36563 8.87439 9.07937ZM9.99943 13.037C9.70105 13.037 9.41489 13.1508 9.20391 13.3532C8.99292 13.5556 8.87439 13.8301 8.87439 14.1164C8.87439 14.4027 8.99292 14.6772 9.20391 14.8796C9.41489 15.082 9.70105 15.1958 9.99943 15.1958H17.4997C17.798 15.1958 18.0842 15.082 18.2952 14.8796C18.5062 14.6772 18.6247 14.4027 18.6247 14.1164C18.6247 13.8301 18.5062 13.5556 18.2952 13.3532C18.0842 13.1508 17.798 13.037 17.4997 13.037H9.99943Z" fill="white"/>
</svg>
