<svg width="24" height="24" viewBox="0 0 24 24" fill="none" xmlns="http://www.w3.org/2000/svg">
<path opacity="0.3" d="M3.81788 1.82825C4.16213 1.48023 4.64362 1.25424 5.55487 1.12994C6.49312 1.00226 7.73513 1 9.51713 1H14.4829C16.2649 1 17.5069 1.00226 18.4451 1.12994C19.3564 1.25424 19.8379 1.48023 20.1821 1.82825C20.5253 2.17627 20.7491 2.66441 20.8717 3.58757C20.9977 4.53672 21 5.79661 21 7.60113V19.0791H6.85425C5.63475 19.0791 5.2095 19.0859 4.88212 19.1559C4.305 19.2802 3.80212 19.548 3.4365 19.9096C3.31275 20.0316 3.252 20.0915 3.10913 20.4802C3.0416 20.6454 3.00462 20.8215 3 21V7.60113C3 5.79661 3.00225 4.53785 3.12825 3.58757C3.25087 2.66554 3.47475 2.17627 3.81788 1.82825Z" fill="black"/>
<path d="M6.8538 18.6825H21C20.9966 19.6863 20.9752 20.4344 20.8729 21.0248C20.7491 21.7296 20.5241 22.102 20.1798 22.3675C19.8345 22.633 19.3507 22.8068 18.436 22.9007C17.4944 22.9978 16.2467 23 14.4579 23H9.47401C7.6852 23 6.43641 22.9989 5.49588 22.9007C4.58123 22.8068 4.09746 22.633 3.75208 22.3675C3.40669 22.102 3.18281 21.7296 3.05905 21.0258L3.0343 20.8629C2.9893 20.5488 2.9668 20.3912 3.10856 20.021C3.25143 19.6497 3.31219 19.5924 3.43594 19.4759C3.83706 19.1094 4.33839 18.8598 4.88161 18.7559C5.20787 18.689 5.63539 18.6825 6.8538 18.6825Z" fill="black"/>
<path d="M6.65579 6.80952C6.65579 6.59482 6.74469 6.38892 6.90293 6.2371C7.06117 6.08529 7.27579 6 7.49957 6H16.4999C16.7236 6 16.9383 6.08529 17.0965 6.2371C17.2547 6.38892 17.3436 6.59482 17.3436 6.80952C17.3436 7.02422 17.2547 7.23013 17.0965 7.38194C16.9383 7.53376 16.7236 7.61905 16.4999 7.61905H7.49957C7.27579 7.61905 7.06117 7.53376 6.90293 7.38194C6.74469 7.23013 6.65579 7.02422 6.65579 6.80952ZM7.49957 9.77778C7.27579 9.77778 7.06117 9.86307 6.90293 10.0149C6.74469 10.1667 6.65579 10.3726 6.65579 10.5873C6.65579 10.802 6.74469 11.0079 6.90293 11.1597C7.06117 11.3115 7.27579 11.3968 7.49957 11.3968H13.1247C13.3485 11.3968 13.5631 11.3115 13.7214 11.1597C13.8796 11.0079 13.9685 10.802 13.9685 10.5873C13.9685 10.3726 13.8796 10.1667 13.7214 10.0149C13.5631 9.86307 13.3485 9.77778 13.1247 9.77778H7.49957Z" fill="black"/>
</svg>
