<svg width="24" height="24" viewBox="0 0 24 24" fill="none" xmlns="http://www.w3.org/2000/svg">
<path opacity="0.3" d="M8.0023 18.8571C8.18401 21.3189 10.0869 23.4309 12.54 23.7051C13.224 23.7823 13.9183 23.832 14.6194 23.832C15.3206 23.832 16.0149 23.7806 16.6989 23.7051C19.1503 23.4309 21.0532 21.3189 21.2366 18.8589C21.3412 17.4446 21.4252 15.9977 21.4252 14.5269C21.4252 13.056 21.3412 11.6074 21.2366 10.1949C21.0514 7.73143 19.1486 5.62114 16.6972 5.34686C16.0069 5.26629 15.3127 5.22394 14.6177 5.22C13.9149 5.22 13.2223 5.27143 12.5383 5.34686C10.0869 5.62114 8.18401 7.73314 8.00058 10.1949C7.8943 11.6074 7.81201 13.0543 7.81201 14.5269C7.81201 15.9977 7.8943 17.4446 8.00058 18.8589L8.0023 18.8571Z" fill="black"/>
<path fill-rule="evenodd" clip-rule="evenodd" d="M11.7668 2.73943C8.27997 2.73943 5.14626 5.94171 5.14626 9.35828C5.14626 9.69928 5.0108 10.0263 4.76968 10.2674C4.52856 10.5085 4.20154 10.644 3.86054 10.644C3.51955 10.644 3.19252 10.5085 2.95141 10.2674C2.71029 10.0263 2.57483 9.69928 2.57483 9.35828C2.57483 4.53943 6.8434 0.167999 11.7668 0.167999C12.1078 0.167999 12.4348 0.303458 12.676 0.544576C12.9171 0.785694 13.0525 1.11272 13.0525 1.45371C13.0525 1.79471 12.9171 2.12173 12.676 2.36285C12.4348 2.60397 12.1078 2.73943 11.7668 2.73943Z" fill="black"/>
<path fill-rule="evenodd" clip-rule="evenodd" d="M14.6194 5.22C13.9165 5.22 13.224 5.27143 12.54 5.34686C10.0885 5.62114 8.18569 7.73314 8.00226 10.1949C7.91679 11.2932 7.85849 12.3936 7.8274 13.4949C9.08569 13.488 11.3365 13.4897 12.9017 13.4949C13.1274 13.4953 13.351 13.4512 13.5596 13.365C13.7682 13.2789 13.9577 13.1524 14.1173 12.9928C14.2769 12.8332 14.4034 12.6436 14.4896 12.435C14.5757 12.2264 14.6199 12.0028 14.6194 11.7771V5.22Z" fill="black"/>
</svg>
