<svg width="24" height="24" viewBox="0 0 24 24" fill="none" xmlns="http://www.w3.org/2000/svg">
<path d="M22.8 15.6C22.8 12.6188 20.3813 10.2 17.4 10.2C14.4188 10.2 12 12.6188 12 15.6C12 18.5813 14.4188 21 17.4 21C20.3813 21 22.8 18.5813 22.8 15.6ZM16.8 12.6C16.8 12.27 17.07 12 17.4 12C17.73 12 18 12.27 18 12.6V12.9H18.6C18.93 12.9 19.2 13.17 19.2 13.5C19.2 13.83 18.93 14.1 18.6 14.1H16.8825C16.6725 14.1 16.5 14.2725 16.5 14.4825C16.5 14.6663 16.6312 14.8238 16.8112 14.8575L18.4987 15.165C19.2487 15.3 19.7962 15.9563 19.7962 16.7213C19.7962 17.595 19.0875 18.3038 18.2137 18.3038H17.9962V18.6038C17.9962 18.9338 17.7262 19.2038 17.3962 19.2038C17.0662 19.2038 16.7962 18.9338 16.7962 18.6038V18.3038H16.1962C15.8663 18.3038 15.5962 18.0338 15.5962 17.7038C15.5962 17.3738 15.8663 17.1038 16.1962 17.1038H18.2137C18.4237 17.1038 18.5962 16.9313 18.5962 16.7213C18.5962 16.5375 18.465 16.38 18.285 16.3463L16.5975 16.0388C15.8475 15.9038 15.3 15.2475 15.3 14.4825C15.3 13.635 15.9637 12.945 16.8 12.9038V12.6Z" fill="black"/>
<path opacity="0.3" d="M2.40007 3C1.91632 3 1.47757 3.2925 1.29007 3.7425C1.10257 4.1925 1.20757 4.70625 1.55257 5.0475L8.40007 11.8988V16.2C8.40007 16.5188 8.52757 16.8225 8.75257 17.0475L11.1526 19.4475C11.2463 19.5413 11.3513 19.6163 11.4638 19.6725C10.6688 18.5138 10.2038 17.1112 10.2038 15.6C10.2038 11.8725 13.0351 8.80875 16.6651 8.4375L20.0551 5.0475C20.4001 4.7025 20.5013 4.18875 20.3138 3.73875C20.1263 3.28875 19.6838 3 19.2001 3H2.40007Z" fill="black"/>
</svg>
