<svg width="32" height="32" viewBox="0 0 32 32" fill="none" xmlns="http://www.w3.org/2000/svg">
<path opacity="0.3" d="M10.6697 25.1428C10.912 28.4251 13.4492 31.2411 16.72 31.6068C17.632 31.7097 18.5577 31.776 19.4926 31.776C20.4274 31.776 21.3532 31.7074 22.2652 31.6068C25.5337 31.2411 28.0709 28.4251 28.3154 25.1451C28.4549 23.2594 28.5669 21.3302 28.5669 19.3691C28.5669 17.408 28.4549 15.4765 28.3154 13.5931C28.0686 10.3085 25.5314 7.49482 22.2629 7.1291C21.3425 7.02168 20.4169 6.96521 19.4903 6.95996C18.5532 6.95996 17.6297 7.02853 16.7177 7.1291C13.4492 7.49482 10.912 10.3108 10.6674 13.5931C10.5257 15.4765 10.416 17.4057 10.416 19.3691C10.416 21.3302 10.5257 23.2594 10.6674 25.1451L10.6697 25.1428Z" fill="#FF004F"/>
<path fill-rule="evenodd" clip-rule="evenodd" d="M15.6891 3.65269C11.04 3.65269 6.86171 7.92241 6.86171 12.4778C6.86171 12.9325 6.6811 13.3685 6.3596 13.69C6.03811 14.0115 5.60208 14.1921 5.14742 14.1921C4.69277 14.1921 4.25673 14.0115 3.93524 13.69C3.61375 13.3685 3.43314 12.9325 3.43314 12.4778C3.43314 6.05269 9.12457 0.224121 15.6891 0.224121C16.1438 0.224121 16.5798 0.404733 16.9013 0.726224C17.2228 1.04771 17.4034 1.48375 17.4034 1.93841C17.4034 2.39306 17.2228 2.8291 16.9013 3.15059C16.5798 3.47208 16.1438 3.65269 15.6891 3.65269Z" fill="#FF004F"/>
<path fill-rule="evenodd" clip-rule="evenodd" d="M19.4926 6.96012C18.5554 6.96012 17.632 7.02869 16.72 7.12926C13.4514 7.49498 10.9143 10.311 10.6697 13.5933C10.5558 15.0578 10.478 16.5249 10.4366 17.9933C12.1143 17.9841 15.1154 17.9864 17.2023 17.9933C17.5032 17.9939 17.8013 17.935 18.0794 17.8202C18.3576 17.7053 18.6103 17.5366 18.8231 17.3238C19.0359 17.111 19.2046 16.8583 19.3195 16.5801C19.4343 16.302 19.4932 16.0039 19.4926 15.703V6.96012Z" fill="#FF004F"/>
</svg>
