<svg width="32" height="32" viewBox="0 0 32 32" fill="none" xmlns="http://www.w3.org/2000/svg">
<path opacity="0.3" d="M10.6697 25.1428C10.912 28.4251 13.4492 31.2411 16.72 31.6068C17.632 31.7097 18.5577 31.776 19.4926 31.776C20.4274 31.776 21.3532 31.7074 22.2652 31.6068C25.5337 31.2411 28.0709 28.4251 28.3154 25.1451C28.4549 23.2594 28.5669 21.3303 28.5669 19.3691C28.5669 17.408 28.4549 15.4766 28.3154 13.5931C28.0686 10.3086 25.5314 7.49485 22.2629 7.12913C21.3425 7.02171 20.4169 6.96524 19.4903 6.95999C18.5532 6.95999 17.6297 7.02856 16.7177 7.12913C13.4492 7.49485 10.912 10.3108 10.6674 13.5931C10.5257 15.4766 10.416 17.4057 10.416 19.3691C10.416 21.3303 10.5257 23.2594 10.6674 25.1451L10.6697 25.1428Z" fill="white"/>
<path fill-rule="evenodd" clip-rule="evenodd" d="M15.6892 3.65257C11.04 3.65257 6.86174 7.92229 6.86174 12.4777C6.86174 12.9324 6.68113 13.3684 6.35964 13.6899C6.03814 14.0114 5.60211 14.192 5.14745 14.192C4.6928 14.192 4.25676 14.0114 3.93527 13.6899C3.61378 13.3684 3.43317 12.9324 3.43317 12.4777C3.43317 6.05257 9.1246 0.223999 15.6892 0.223999C16.1438 0.223999 16.5799 0.404611 16.9014 0.726102C17.2228 1.04759 17.4035 1.48363 17.4035 1.93828C17.4035 2.39294 17.2228 2.82898 16.9014 3.15047C16.5799 3.47196 16.1438 3.65257 15.6892 3.65257Z" fill="white"/>
<path fill-rule="evenodd" clip-rule="evenodd" d="M19.4926 6.96C18.5555 6.96 17.632 7.02857 16.72 7.12914C13.4515 7.49486 10.9143 10.3109 10.6697 13.5931C10.5558 15.0577 10.478 16.5248 10.4366 17.9931C12.1143 17.984 15.1155 17.9863 17.2023 17.9931C17.5032 17.9937 17.8013 17.9349 18.0795 17.82C18.3576 17.7051 18.6103 17.5365 18.8231 17.3237C19.0359 17.1109 19.2046 16.8582 19.3195 16.58C19.4344 16.3019 19.4932 16.0038 19.4926 15.7029V6.96Z" fill="white"/>
</svg>
