<svg width="24" height="24" viewBox="0 0 24 24" fill="none" xmlns="http://www.w3.org/2000/svg">
<path opacity="0.3" d="M22 12C22 17.523 17.523 22 12 22C6.477 22 2 17.523 2 12C2 6.477 6.477 2 12 2C17.523 2 22 6.477 22 12Z" fill="black"/>
<path d="M16.03 8.97001C16.1705 9.11064 16.2494 9.30126 16.2494 9.50001C16.2494 9.69876 16.1705 9.88939 16.03 10.03L11.03 15.03C10.8894 15.1705 10.6988 15.2494 10.5 15.2494C10.3013 15.2494 10.1107 15.1705 9.97003 15.03L7.97003 13.03C7.89634 12.9613 7.83724 12.8785 7.79625 12.7865C7.75526 12.6946 7.73322 12.5952 7.73144 12.4945C7.72966 12.3938 7.74819 12.2938 7.78591 12.2004C7.82363 12.107 7.87977 12.0222 7.95099 11.951C8.02221 11.8798 8.10705 11.8236 8.20043 11.7859C8.29382 11.7482 8.39385 11.7296 8.49455 11.7314C8.59526 11.7332 8.69457 11.7552 8.78657 11.7962C8.87857 11.8372 8.96137 11.8963 9.03003 11.97L10.5 13.44L12.735 11.205L14.97 8.97001C15.1107 8.82956 15.3013 8.75067 15.5 8.75067C15.6988 8.75067 15.8894 8.82956 16.03 8.97001Z" fill="black"/>
</svg>
