<svg width="24" height="24" viewBox="0 0 24 24" fill="none" xmlns="http://www.w3.org/2000/svg">
<path d="M12 12.8517L9.01901 15.8327C8.90748 15.9442 8.76553 16 8.59316 16C8.42079 16 8.27883 15.9442 8.1673 15.8327C8.05577 15.7212 8 15.5792 8 15.4068C8 15.2345 8.05577 15.0925 8.1673 14.981L11.1483 12L8.1673 9.01901C8.05577 8.90748 8 8.76553 8 8.59316C8 8.42079 8.05577 8.27883 8.1673 8.1673C8.27883 8.05577 8.42079 8 8.59316 8C8.76553 8 8.90748 8.05577 9.01901 8.1673L12 11.1483L14.981 8.1673C15.0925 8.05577 15.2345 8 15.4068 8C15.5792 8 15.7212 8.05577 15.8327 8.1673C15.9442 8.27883 16 8.42079 16 8.59316C16 8.76553 15.9442 8.90748 15.8327 9.01901L12.8517 12L15.8327 14.981C15.9442 15.0925 16 15.2345 16 15.4068C16 15.5792 15.9442 15.7212 15.8327 15.8327C15.7212 15.9442 15.5792 16 15.4068 16C15.2345 16 15.0925 15.9442 14.981 15.8327L12 12.8517Z" fill="black"/>
</svg>
