<svg width="24" height="24" viewBox="0 0 24 24" fill="none" xmlns="http://www.w3.org/2000/svg">
<path d="M14.9182 18.9923L16.9192 16.9242L18.9203 18.9923L19.5584 18.334L17.5642 16.2731L19.5652 14.2051L18.9272 13.5457L16.9261 15.6137L14.925 13.5457L14.287 14.2051L16.288 16.2731L14.287 18.3411L14.9182 18.9923ZM2.5 18.5456V3L16.543 9.20404H16.463C16.1192 9.23477 15.7727 9.28716 15.4236 9.36121C15.0744 9.43527 14.7703 9.53453 14.5111 9.65901L3.64348 4.90966V9.50066L9.18705 10.8183L3.64462 12.1371V16.7269L10.5455 13.6899C10.4517 13.916 10.374 14.1637 10.3122 14.4332C10.2512 14.7018 10.2131 14.9287 10.1979 15.1138V15.1268L2.5 18.5456ZM16.9261 21C15.6523 21 14.5713 20.5411 13.6832 19.6233C12.7959 18.7063 12.3522 17.5895 12.3522 16.2731C12.3522 14.9567 12.7959 13.8395 13.6832 12.9217C14.5705 12.0039 15.6515 11.5454 16.9261 11.5462C18.1992 11.5462 19.2798 12.0047 20.1679 12.9217C21.056 13.8388 21.5 14.9559 21.5 16.2731C21.5 17.5888 21.056 18.7055 20.1679 19.6233C19.2798 20.5411 18.1992 21 16.9261 21ZM3.64348 13.6899V4.90966L3.64462 16.7269L3.64348 13.6899Z" fill="black"/>
</svg>
