<svg width="24" height="24" viewBox="0 0 24 24" fill="none" xmlns="http://www.w3.org/2000/svg">
<path d="M17.0001 18.1666V13.5856L11.5128 10.5231C11.0306 10.2538 10.8579 9.64491 11.1271 9.1627C11.3963 8.68049 12.0052 8.50772 12.4874 8.77696L18.4874 12.1266C18.8038 12.3032 19 12.6374 19.0001 12.9996V18.1676C18.9996 19.223 18.6278 20.2449 17.9503 21.0543C17.273 21.8635 16.3328 22.4089 15.2941 22.5953C14.2552 22.7817 13.1833 22.5972 12.2667 22.0738C11.3503 21.5504 10.6469 20.7214 10.2794 19.732C10.0872 19.2143 10.3516 18.6391 10.8693 18.4469C11.3869 18.2548 11.9622 18.5182 12.1544 19.0357C12.3586 19.5855 12.7496 20.0467 13.2589 20.3375C13.7682 20.6282 14.3634 20.7301 14.9406 20.6266C15.5178 20.523 16.0407 20.2199 16.4171 19.7701C16.7463 19.3767 16.9455 18.8929 16.9904 18.3854L17.0001 18.1666Z" fill="#0EA982"/>
<path d="M13.0004 10.8C13.0004 10.2477 13.4481 9.80001 14.0004 9.80001C14.5524 9.80023 15.0004 10.2479 15.0004 10.8V17.7463C15.0002 18.1017 14.8112 18.4304 14.5043 18.6096L10.1644 21.1438L10.1595 21.1457C9.24517 21.6735 8.17414 21.8636 7.13414 21.6818C6.09426 21.5 5.1511 20.9582 4.47008 20.1516C3.7891 19.3449 3.41343 18.3244 3.40855 17.2688C3.40373 16.2131 3.77015 15.1891 4.44371 14.3762C4.79612 13.9509 5.42668 13.8919 5.85191 14.2443C6.27708 14.5968 6.33614 15.2273 5.98375 15.6525C5.60966 16.1041 5.40597 16.6726 5.40855 17.259C5.41124 17.8457 5.61994 18.4133 5.9984 18.8615C6.37687 19.3098 6.90096 19.6111 7.47887 19.7121C8.05462 19.8127 8.64684 19.707 9.15367 19.4162L13.0004 17.1711V10.8Z" fill="#0EA982"/>
<path d="M1.60022 8.8186C2.55609 7.16322 4.36422 6.33783 6.1676 6.6438C6.71186 6.73632 7.07822 7.25279 6.98596 7.79712C6.89358 8.34162 6.37714 8.70786 5.83264 8.61548C4.85427 8.44953 3.86986 8.88642 3.33166 9.8186C3.00376 10.3866 2.91501 11.062 3.08459 11.6956C3.23316 12.2502 3.56944 12.7338 4.03186 13.0657L4.23694 13.1985L4.24475 13.2024L8.01233 15.425L13.5123 12.3567C13.9946 12.0876 14.6045 12.2602 14.8737 12.7424C15.1428 13.2247 14.9692 13.8337 14.4869 14.1028L8.48694 17.4514C8.1767 17.6244 7.7978 17.6201 7.49182 17.4397L3.23694 14.9299L3.04748 14.8147C2.11742 14.2142 1.44075 13.2876 1.15295 12.2131C0.846093 11.0673 1.00715 9.84597 1.60022 8.8186Z" fill="#0EA982"/>
<path d="M8.70599 1.40411C9.74488 1.21772 10.8168 1.40318 11.7333 1.92657C12.6496 2.44992 13.3532 3.27827 13.7206 4.26739C13.9129 4.78513 13.6485 5.36126 13.1308 5.55353C12.6131 5.74561 12.0379 5.48133 11.8456 4.96368C11.6414 4.41404 11.2503 3.95366 10.7412 3.6629C10.2319 3.37213 9.63668 3.26937 9.05951 3.37286C8.48229 3.47643 7.95937 3.77962 7.58295 4.22931C7.20652 4.67905 7.00024 5.24732 6.99994 5.8338V10.3211L12.498 13.4832C12.9767 13.7585 13.1423 14.3697 12.8671 14.8484C12.5919 15.3272 11.9806 15.4918 11.5019 15.2166L5.50189 11.7674C5.19169 11.589 5.00001 11.258 4.99994 10.9002V5.83282L5.00482 5.63458C5.04865 4.64985 5.41474 3.70479 6.04974 2.9461C6.72719 2.13675 7.66713 1.59051 8.70599 1.40411Z" fill="#0EA982"/>
<path d="M8.99994 13.2002V6.25395L9.00873 6.12211C9.04908 5.81859 9.22741 5.54751 9.49603 5.39067L13.8359 2.85649L13.8398 2.85356C14.7541 2.32571 15.8252 2.13664 16.8652 2.3184C17.9052 2.50019 18.8481 3.04194 19.5292 3.84868C20.2103 4.65541 20.5869 5.6757 20.5917 6.73149C20.5966 7.78729 20.2293 8.81114 19.5556 9.62407C19.2032 10.0492 18.5726 10.1083 18.1474 9.7559C17.7225 9.40347 17.6633 8.77284 18.0156 8.3477C18.3899 7.89599 18.5944 7.32694 18.5917 6.74028C18.589 6.15373 18.3793 5.58691 18.0009 5.13872C17.6225 4.69052 17.0983 4.38913 16.5204 4.28813C15.944 4.1875 15.3499 4.29131 14.8427 4.58305L14.8437 4.58403L10.9999 6.82719V13.2002L10.9951 13.3018C10.9441 13.8063 10.5179 14.2002 9.99994 14.2002C9.48201 14.2002 9.05581 13.8063 9.00482 13.3018L8.99994 13.2002Z" fill="#0EA982"/>
<path d="M15.5761 6.42823C15.8616 6.31136 16.1882 6.33275 16.4589 6.49073L20.7636 9.00244L20.9521 9.11768C21.8821 9.7181 22.5588 10.644 22.8466 11.7183C23.1535 12.8641 22.9933 14.0854 22.4003 15.1128C21.4446 16.7684 19.6364 17.5935 17.8329 17.2876C17.2884 17.1952 16.9212 16.6788 17.0136 16.1343C17.1061 15.5901 17.6227 15.2237 18.1669 15.3159C19.1454 15.4819 20.1297 15.0451 20.6679 14.1128C20.9958 13.5447 21.0847 12.8694 20.915 12.2358C20.7452 11.6023 20.3306 11.062 19.7626 10.7339L19.7587 10.7319L15.9511 8.50928L10.498 11.6411C10.0191 11.9162 9.4078 11.7509 9.13275 11.272C8.85774 10.7931 9.02299 10.1818 9.50189 9.90674L15.457 6.48682L15.5761 6.42823Z" fill="#0EA982"/>
</svg>
