<svg width="98" height="64" viewBox="0 0 98 64" fill="none" xmlns="http://www.w3.org/2000/svg">
<rect x="0.5" y="0.5" width="97" height="63" rx="4.5" stroke="#9747FF" stroke-dasharray="10 5"/>
<path d="M25 41C24.45 41 23.9793 40.8043 23.588 40.413C23.1967 40.0217 23.0007 39.5507 23 39V25C23 24.45 23.196 23.9793 23.588 23.588C23.98 23.1967 24.4507 23.0007 25 23H39C39.55 23 40.021 23.196 40.413 23.588C40.805 23.98 41.0007 24.4507 41 25V39C41 39.55 40.8043 40.021 40.413 40.413C40.0217 40.805 39.5507 41.0007 39 41H25ZM25 39H39V25H25V39Z" fill="#99A1B7"/>
<path d="M73 23H59C57.9 23 57 23.9 57 25V39C57 40.1 57.9 41 59 41H73C74.1 41 75 40.1 75 39V25C75 23.9 74.1 23 73 23ZM64.71 36.29C64.6175 36.3827 64.5076 36.4563 64.3866 36.5064C64.2657 36.5566 64.136 36.5824 64.005 36.5824C63.874 36.5824 63.7443 36.5566 63.6234 36.5064C63.5024 36.4563 63.3925 36.3827 63.3 36.29L59.71 32.7C59.6174 32.6074 59.544 32.4975 59.4939 32.3765C59.4438 32.2556 59.418 32.1259 59.418 31.995C59.418 31.8641 59.4438 31.7344 59.4939 31.6135C59.544 31.4925 59.6174 31.3826 59.71 31.29C59.8026 31.1974 59.9125 31.124 60.0335 31.0739C60.1544 31.0238 60.2841 30.998 60.415 30.998C60.5459 30.998 60.6756 31.0238 60.7965 31.0739C60.9175 31.124 61.0274 31.1974 61.12 31.29L64 34.17L70.88 27.29C71.067 27.103 71.3206 26.998 71.585 26.998C71.8494 26.998 72.103 27.103 72.29 27.29C72.477 27.477 72.582 27.7306 72.582 27.995C72.582 28.2594 72.477 28.513 72.29 28.7L64.71 36.29Z" fill="#7239EA"/>
</svg>
