<svg width="24" height="24" viewBox="0 0 24 24" fill="none" xmlns="http://www.w3.org/2000/svg">
<path opacity="0.3" d="M12 22C7.286 22 4.929 22 3.464 20.535C2 19.072 2 16.714 2 12C2 7.286 2 4.929 3.464 3.464C4.93 2 7.286 2 12 2C16.714 2 19.071 2 20.535 3.464C22 4.93 22 7.286 22 12C22 16.714 22 19.071 20.535 20.535C19.072 22 16.714 22 12 22Z" fill="black"/>
<path d="M8.96995 8.97C9.11058 8.82955 9.3012 8.75066 9.49995 8.75066C9.6987 8.75066 9.88932 8.82955 10.03 8.97L12 10.94L13.97 8.97C14.0386 8.89631 14.1214 8.83721 14.2134 8.79622C14.3054 8.75523 14.4047 8.73319 14.5054 8.73141C14.6061 8.72963 14.7062 8.74816 14.7995 8.78588C14.8929 8.8236 14.9778 8.87974 15.049 8.95096C15.1202 9.02218 15.1764 9.10702 15.2141 9.2004C15.2518 9.29379 15.2703 9.39382 15.2685 9.49452C15.2668 9.59523 15.2447 9.69454 15.2037 9.78654C15.1627 9.87854 15.1036 9.96134 15.03 10.03L13.06 12L15.03 13.97C15.1036 14.0387 15.1627 14.1215 15.2037 14.2135C15.2447 14.3055 15.2668 14.4048 15.2685 14.5055C15.2703 14.6062 15.2518 14.7062 15.2141 14.7996C15.1764 14.893 15.1202 14.9778 15.049 15.049C14.9778 15.1203 14.8929 15.1764 14.7995 15.2141C14.7062 15.2518 14.6061 15.2704 14.5054 15.2686C14.4047 15.2668 14.3054 15.2448 14.2134 15.2038C14.1214 15.1628 14.0386 15.1037 13.97 15.03L12 13.06L10.03 15.03C9.88778 15.1625 9.69973 15.2346 9.50543 15.2312C9.31113 15.2277 9.12574 15.149 8.98833 15.0116C8.85092 14.8742 8.7722 14.6888 8.76877 14.4945C8.76535 14.3002 8.83747 14.1122 8.96995 13.97L10.9399 12L8.96995 10.03C8.8295 9.88938 8.75061 9.69875 8.75061 9.5C8.75061 9.30125 8.8295 9.11063 8.96995 8.97Z" fill="black"/>
</svg>
