<svg width="32" height="32" viewBox="0 0 32 32" fill="none" xmlns="http://www.w3.org/2000/svg">
<path d="M30.3999 20.8001C30.3999 16.8251 27.1749 13.6001 23.1999 13.6001C19.2249 13.6001 15.9999 16.8251 15.9999 20.8001C15.9999 24.7751 19.2249 28.0001 23.1999 28.0001C27.1749 28.0001 30.3999 24.7751 30.3999 20.8001ZM22.3999 16.8001C22.3999 16.3601 22.7599 16.0001 23.1999 16.0001C23.6399 16.0001 23.9999 16.3601 23.9999 16.8001V17.2001H24.7999C25.2399 17.2001 25.5999 17.5601 25.5999 18.0001C25.5999 18.4401 25.2399 18.8001 24.7999 18.8001H22.5099C22.2299 18.8001 21.9999 19.0301 21.9999 19.3101C21.9999 19.5551 22.1749 19.7651 22.4149 19.8101L24.6649 20.2201C25.6649 20.4001 26.3949 21.2751 26.3949 22.2951C26.3949 23.4601 25.4499 24.4051 24.2849 24.4051H23.9949V24.8051C23.9949 25.2451 23.6349 25.6051 23.1949 25.6051C22.7549 25.6051 22.3949 25.2451 22.3949 24.8051V24.4051H21.5949C21.1549 24.4051 20.7949 24.0451 20.7949 23.6051C20.7949 23.1651 21.1549 22.8051 21.5949 22.8051H24.2849C24.5649 22.8051 24.7949 22.5751 24.7949 22.2951C24.7949 22.0501 24.6199 21.8401 24.3799 21.7951L22.1299 21.3851C21.1299 21.2051 20.3999 20.3301 20.3999 19.3101C20.3999 18.1801 21.2849 17.2601 22.3999 17.2051V16.8001Z" fill="#DEAD00"/>
<path opacity="0.3" d="M3.20011 4C2.55511 4 1.97011 4.39 1.72011 4.99C1.47011 5.59 1.61011 6.275 2.07011 6.73L11.2001 15.865V21.6C11.2001 22.025 11.3701 22.43 11.6701 22.73L14.8701 25.93C14.9951 26.055 15.1351 26.155 15.2851 26.23C14.2251 24.685 13.6051 22.815 13.6051 20.8C13.6051 15.83 17.3801 11.745 22.2201 11.25L26.7401 6.73C27.2001 6.27 27.3351 5.585 27.0851 4.985C26.8351 4.385 26.2451 4 25.6001 4H3.20011Z" fill="#DEAD00"/>
</svg>
