<svg width="24" height="24" viewBox="0 0 24 24" fill="none" xmlns="http://www.w3.org/2000/svg">
<path fill-rule="evenodd" clip-rule="evenodd" d="M22 12C22 17.523 17.523 22 12 22C6.477 22 2 17.523 2 12C2 6.477 6.477 2 12 2C17.523 2 22 6.477 22 12ZM16.906 18.32C15.3668 19.5158 13.4441 20.1085 11.4988 19.9869C9.55358 19.8653 7.71963 19.0377 6.34137 17.6596C4.96312 16.2814 4.13539 14.4476 4.01361 12.5023C3.89183 10.5571 4.48439 8.63426 5.68 7.095L16.906 18.32ZM18.32 16.906L7.094 5.68C8.63317 4.48347 10.5563 3.89016 12.5021 4.01154C14.4478 4.13291 16.2823 4.96062 17.6608 6.33916C19.0394 7.7177 19.8671 9.55218 19.9885 11.4979C20.1098 13.4437 19.5165 15.3668 18.32 16.906Z" fill="black"/>
</svg>
