<svg width="24" height="24" viewBox="0 0 24 24" fill="none" xmlns="http://www.w3.org/2000/svg">
<path fill-rule="evenodd" clip-rule="evenodd" d="M3.35799 12.779C2.74799 13.72 2.99999 15.029 3.50299 17.647C3.86599 19.532 4.04699 20.474 4.67499 21.099C4.83899 21.2617 5.02032 21.4047 5.21899 21.528C5.98199 22 6.99499 22 9.02199 22H15.978C18.005 22 19.018 22 19.781 21.528C19.9797 21.4047 20.161 21.2617 20.325 21.099C20.953 20.474 21.135 19.532 21.497 17.647C22 15.029 22.252 13.72 21.642 12.779C21.4841 12.5374 21.2921 12.3198 21.072 12.133C20.202 11.398 18.793 11.398 15.978 11.398H9.02199C6.20699 11.398 4.79899 11.398 3.92799 12.133C3.7079 12.3198 3.51592 12.5374 3.35799 12.779ZM9.69499 17.181C9.69499 16.781 10.038 16.458 10.46 16.458H14.54C14.962 16.458 15.305 16.781 15.305 17.181C15.305 17.581 14.962 17.904 14.54 17.904H10.46C10.038 17.904 9.69499 17.58 9.69499 17.181Z" fill="black"/>
<path opacity="0.3" d="M3.57605 12.485C3.68272 12.3583 3.80005 12.241 3.92805 12.133C4.79805 11.398 6.20705 11.398 9.02205 11.398H15.978C18.793 11.398 20.201 11.398 21.0721 12.133C21.2001 12.241 21.3177 12.3587 21.425 12.486V9.75601C21.425 8.84601 21.4251 8.09301 21.3391 7.49201C21.2491 6.85701 21.053 6.29501 20.584 5.83201C20.5073 5.75638 20.4265 5.68494 20.342 5.61801C19.83 5.21001 19.217 5.04301 18.522 4.96601C17.853 4.89201 17.01 4.89201 15.977 4.89201H15.624C14.642 4.89201 14.29 4.88601 13.971 4.80501C13.786 4.75879 13.6063 4.69309 13.4351 4.60901C13.151 4.46901 12.903 4.25801 12.208 3.64101L11.734 3.22101C11.534 3.04501 11.399 2.92501 11.254 2.81801C10.614 2.35488 9.85867 2.07704 9.07105 2.01501C8.85235 2.00101 8.63316 1.996 8.41405 2.00001H8.29705C7.65705 2.00001 7.23405 2.00001 6.86705 2.06101C5.26205 2.32901 3.96405 3.45101 3.64705 4.93601C3.57605 5.27301 3.57605 5.66001 3.57705 6.21901L3.57605 12.485Z" fill="black"/>
</svg>
