<svg width="24" height="24" viewBox="0 0 24 24" fill="none" xmlns="http://www.w3.org/2000/svg">
<path opacity="0.3" d="M4.80005 15V7.6476L12.8952 11.9172C12.9875 11.9714 13.0925 12 13.1994 12C13.3064 12 13.4114 11.9714 13.5036 11.9172L21.6 7.6476V15C21.6 15.7956 21.284 16.5587 20.7214 17.1213C20.1588 17.6839 19.3957 18 18.6 18H7.80005C7.0044 18 6.24134 17.6839 5.67873 17.1213C5.11612 16.5587 4.80005 15.7956 4.80005 15Z" fill="black"/>
<path d="M4.81802 6.26761C4.89981 5.53398 5.24921 4.85625 5.79938 4.36409C6.34954 3.87193 7.06185 3.59989 7.80002 3.60001H18.6C19.3382 3.59989 20.0505 3.87193 20.6007 4.36409C21.1508 4.85625 21.5002 5.53398 21.582 6.26761L13.2 10.704L4.81802 6.26761ZM16.2 20.4C17.1816 20.4 18.0528 19.9284 18.6 19.2H7.80002C6.68611 19.2 5.61783 18.7575 4.83018 17.9699C4.04252 17.1822 3.60002 16.1139 3.60002 15V6.60001C2.87162 7.14721 2.40002 8.01841 2.40002 9.00001V15C2.40002 16.4322 2.96895 17.8057 3.98165 18.8184C4.99434 19.8311 6.36785 20.4 7.80002 20.4H16.2Z" fill="black"/>
</svg>
