<svg width="98" height="64" viewBox="0 0 98 64" fill="none" xmlns="http://www.w3.org/2000/svg">
<rect x="0.5" y="0.5" width="97" height="63" rx="4.5" stroke="#9747FF" stroke-dasharray="10 5"/>
<path opacity="0.3" d="M22 32C22 33.64 22.425 34.191 23.275 35.296C24.972 37.5 27.818 40 32 40C36.182 40 39.028 37.5 40.725 35.296C41.575 34.192 42 33.639 42 32C42 30.36 41.575 29.809 40.725 28.704C39.028 26.5 36.182 24 32 24C27.818 24 24.972 26.5 23.275 28.704C22.425 29.81 22 30.361 22 32Z" fill="black"/>
<path fill-rule="evenodd" clip-rule="evenodd" d="M28.25 32C28.25 31.0054 28.6451 30.0516 29.3483 29.3483C30.0516 28.6451 31.0054 28.25 32 28.25C32.9946 28.25 33.9484 28.6451 34.6517 29.3483C35.3549 30.0516 35.75 31.0054 35.75 32C35.75 32.9946 35.3549 33.9484 34.6517 34.6517C33.9484 35.3549 32.9946 35.75 32 35.75C31.0054 35.75 30.0516 35.3549 29.3483 34.6517C28.6451 33.9484 28.25 32.9946 28.25 32ZM29.75 32C29.75 31.4033 29.9871 30.831 30.409 30.409C30.831 29.9871 31.4033 29.75 32 29.75C32.5967 29.75 33.169 29.9871 33.591 30.409C34.0129 30.831 34.25 31.4033 34.25 32C34.25 32.5967 34.0129 33.169 33.591 33.591C33.169 34.0129 32.5967 34.25 32 34.25C31.4033 34.25 30.831 34.0129 30.409 33.591C29.9871 33.169 29.75 32.5967 29.75 32Z" fill="black"/>
<path opacity="0.3" d="M75 29.75C73.4241 31.7009 70.5347 34.25 66 34.25C61.4653 34.25 58.5759 31.7009 57 29.75C58.5759 27.7991 61.4653 25.25 66 25.25C70.5347 25.25 73.4241 27.7991 75 29.75Z" fill="black"/>
<path d="M75.375 36.4063C75.2893 36.4551 75.1948 36.4866 75.097 36.4989C74.9991 36.5112 74.8998 36.5041 74.8047 36.4779C74.7097 36.4518 74.6207 36.4072 74.5428 36.3466C74.465 36.2861 74.3999 36.2108 74.3512 36.125L72.57 33.0125C71.5344 33.7127 70.392 34.2402 69.1875 34.5744L69.7378 37.8763C69.754 37.9735 69.7509 38.0729 69.7287 38.1689C69.7065 38.2649 69.6656 38.3556 69.6083 38.4358C69.551 38.516 69.4784 38.5841 69.3948 38.6363C69.3112 38.6884 69.2181 38.7235 69.1209 38.7397C69.0809 38.7462 69.0405 38.7497 69 38.75C68.8225 38.7497 68.6509 38.6866 68.5157 38.5717C68.3804 38.4569 68.2903 38.2978 68.2612 38.1228L67.7203 34.8809C66.5795 35.0398 65.4223 35.0398 64.2815 34.8809L63.7406 38.1228C63.7115 38.2982 63.621 38.4575 63.4854 38.5723C63.3497 38.6872 63.1777 38.7502 63 38.75C62.9585 38.7498 62.9171 38.7464 62.8762 38.7397C62.779 38.7235 62.6859 38.6884 62.6023 38.6363C62.5186 38.5841 62.4461 38.516 62.3888 38.4358C62.3315 38.3556 62.2906 38.2649 62.2684 38.1689C62.2462 38.0729 62.2431 37.9735 62.2593 37.8763L62.8125 34.5744C61.6083 34.2392 60.4666 33.7107 59.4318 33.0097L57.6562 36.125C57.607 36.2108 57.5413 36.2861 57.463 36.3465C57.3846 36.4069 57.2951 36.4514 57.1996 36.4772C57.1042 36.5031 57.0045 36.5099 56.9064 36.4972C56.8082 36.4845 56.7136 36.4527 56.6278 36.4034C56.542 36.3542 56.4667 36.2885 56.4063 36.2102C56.3458 36.1319 56.3014 36.0424 56.2755 35.9469C56.2497 35.8514 56.2429 35.7517 56.2556 35.6536C56.2682 35.5555 56.3001 35.4608 56.3493 35.375L58.2243 32.0938C57.5657 31.5248 56.9601 30.8972 56.415 30.2188C56.347 30.1428 56.2952 30.0539 56.2627 29.9573C56.2302 29.8607 56.2178 29.7585 56.2262 29.6569C56.2345 29.5553 56.2635 29.4566 56.3113 29.3666C56.3591 29.2766 56.4247 29.1972 56.5042 29.1335C56.5837 29.0697 56.6753 29.0228 56.7735 28.9956C56.8717 28.9684 56.9745 28.9615 57.0754 28.9753C57.1764 28.9891 57.2735 29.0234 57.3608 29.076C57.448 29.1286 57.5237 29.1984 57.5831 29.2813C59.1393 31.2069 61.8618 33.5 66 33.5C70.1381 33.5 72.8606 31.2041 74.4168 29.2813C74.4755 29.1967 74.551 29.1252 74.6386 29.0711C74.7261 29.0171 74.8238 28.9816 74.9257 28.9669C75.0275 28.9522 75.1313 28.9586 75.2306 28.9858C75.3298 29.0129 75.4224 29.0602 75.5026 29.1247C75.5828 29.1891 75.6489 29.2694 75.6968 29.3605C75.7446 29.4516 75.7732 29.5516 75.7807 29.6542C75.7883 29.7568 75.7746 29.8599 75.7406 29.957C75.7066 30.0542 75.653 30.1432 75.5831 30.2188C75.0379 30.8972 74.4323 31.5248 73.7737 32.0938L75.6487 35.375C75.699 35.4605 75.7319 35.5552 75.7454 35.6535C75.7588 35.7519 75.7527 35.8519 75.7272 35.9478C75.7017 36.0437 75.6575 36.1336 75.597 36.2123C75.5366 36.291 75.4611 36.3569 75.375 36.4063Z" fill="black"/>
</svg>
