<svg width="24" height="24" viewBox="0 0 24 24" fill="none" xmlns="http://www.w3.org/2000/svg">
<path d="M10.5 4.5C10.5 3.70435 10.8161 2.94129 11.3787 2.37868C11.9413 1.81607 12.7044 1.5 13.5 1.5C14.2956 1.5 15.0587 1.81607 15.6213 2.37868C16.1839 2.94129 16.5 3.70435 16.5 4.5H18.75C19.3467 4.5 19.919 4.73705 20.341 5.15901C20.7629 5.58097 21 6.15326 21 6.75V10.5H19.5C19.1022 10.5 18.7206 10.658 18.4393 10.9393C18.158 11.2206 18 11.6022 18 12C18 12.3978 18.158 12.7794 18.4393 13.0607C18.7206 13.342 19.1022 13.5 19.5 13.5H21V17.25C21 17.8467 20.7629 18.419 20.341 18.841C19.919 19.2629 19.3467 19.5 18.75 19.5H16.5C16.5 20.2956 16.1839 21.0587 15.6213 21.6213C15.0587 22.1839 14.2956 22.5 13.5 22.5C12.7044 22.5 11.9413 22.1839 11.3787 21.6213C10.8161 21.0587 10.5 20.2956 10.5 19.5H8.25C7.65326 19.5 7.08097 19.2629 6.65901 18.841C6.23705 18.419 6 17.8467 6 17.25V15C5.20435 15 4.44129 14.6839 3.87868 14.1213C3.31607 13.5587 3 12.7956 3 12C3 11.2044 3.31607 10.4413 3.87868 9.87868C4.44129 9.31607 5.20435 9 6 9V6.75C6 6.15326 6.23705 5.58097 6.65901 5.15901C7.08097 4.73705 7.65326 4.5 8.25 4.5H10.5ZM13.5 3C13.1022 3 12.7206 3.15804 12.4393 3.43934C12.158 3.72064 12 4.10218 12 4.5V6H8.25C8.05109 6 7.86032 6.07902 7.71967 6.21967C7.57902 6.36032 7.5 6.55109 7.5 6.75V10.5H6C5.60218 10.5 5.22064 10.658 4.93934 10.9393C4.65804 11.2206 4.5 11.6022 4.5 12C4.5 12.3978 4.65804 12.7794 4.93934 13.0607C5.22064 13.342 5.60218 13.5 6 13.5H7.5V17.25C7.5 17.4489 7.57902 17.6397 7.71967 17.7803C7.86032 17.921 8.05109 18 8.25 18H12V19.5C12 19.8978 12.158 20.2794 12.4393 20.5607C12.7206 20.842 13.1022 21 13.5 21C13.8978 21 14.2794 20.842 14.5607 20.5607C14.842 20.2794 15 19.8978 15 19.5V18H18.75C18.9489 18 19.1397 17.921 19.2803 17.7803C19.421 17.6397 19.5 17.4489 19.5 17.25V15C18.7044 15 17.9413 14.6839 17.3787 14.1213C16.8161 13.5587 16.5 12.7956 16.5 12C16.5 11.2044 16.8161 10.4413 17.3787 9.87868C17.9413 9.31607 18.7044 9 19.5 9V6.75C19.5 6.55109 19.421 6.36032 19.2803 6.21967C19.1397 6.07902 18.9489 6 18.75 6H15V4.5C15 4.10218 14.842 3.72064 14.5607 3.43934C14.2794 3.15804 13.8978 3 13.5 3Z" fill="black"/>
</svg>
