<svg width="24" height="24" viewBox="0 0 24 24" fill="none" xmlns="http://www.w3.org/2000/svg">
<path d="M20 20.2497C20.4141 20.2497 20.7498 20.5856 20.75 20.9997C20.75 21.4139 20.4142 21.7497 20 21.7497H4C3.58579 21.7497 3.25 21.4139 3.25 20.9997C3.25018 20.5856 3.5859 20.2497 4 20.2497H20ZM19.249 6.21744C19.249 5.81238 19.0878 5.42319 18.8018 5.13638L17.8643 4.19693C17.7225 4.05519 17.5543 3.94261 17.3691 3.86588C17.1838 3.7891 16.9848 3.74962 16.7842 3.74966C16.5835 3.74973 16.3846 3.78899 16.1992 3.86588C16.0602 3.92354 15.9313 4.00214 15.8154 4.09732L15.7041 4.19791L6.19727 13.7165C5.91114 14.0032 5.75007 14.3924 5.75 14.7975V17.2497H8.22266C8.62753 17.2497 9.0165 17.0883 9.30273 16.8014L18.8027 7.29654C19.0881 7.00991 19.2489 6.62195 19.249 6.21744ZM20.749 6.21744C20.7489 7.01945 20.4306 7.78919 19.8643 8.35709H19.8633L10.3633 17.861C9.79551 18.4301 9.02578 18.7497 8.22266 18.7497H5C4.58579 18.7497 4.25 18.4139 4.25 17.9997V14.7965C4.25023 13.9944 4.5682 13.2247 5.13477 12.6569H5.13574L14.6426 3.13834C14.9235 2.85697 15.2568 2.63354 15.624 2.48111C15.9913 2.3287 16.3855 2.24983 16.7832 2.24966C17.1809 2.24954 17.575 2.328 17.9424 2.48013C18.3099 2.63235 18.6446 2.85505 18.9258 3.13638V3.13736L19.8643 4.07681V4.07779C20.4305 4.64576 20.749 5.41541 20.749 6.21744Z" fill="black"/>
</svg>
