<svg width="24" height="24" viewBox="0 0 24 24" fill="none" xmlns="http://www.w3.org/2000/svg">
<path opacity="0.3" fill-rule="evenodd" clip-rule="evenodd" d="M13.1844 2.09351C13.2091 1.93284 13.2645 1.77874 13.3474 1.64001C13.4302 1.50128 13.539 1.38064 13.6674 1.28497C13.7958 1.18931 13.9414 1.1205 14.0958 1.08247C14.2502 1.04444 14.4104 1.03795 14.5672 1.06335C17.1992 1.48928 19.3461 2.66306 20.824 4.58469C22.2907 6.49311 22.9999 9.01401 22.9999 11.9641C22.9999 15.3418 22.0683 18.1566 20.1471 20.1261C18.2243 22.0939 15.4763 23.0482 12.1786 23.0482C8.26209 23.0482 5.13208 21.6977 3.24956 18.9507C3.15037 18.8182 3.07835 18.6666 3.03783 18.5049C2.99732 18.3432 2.98914 18.1748 3.01378 18.0098C3.03843 17.8448 3.0954 17.6866 3.18126 17.5447C3.26712 17.4029 3.38011 17.2802 3.51342 17.1842C3.64674 17.0882 3.79763 17.0208 3.95703 16.986C4.11643 16.9513 4.28104 16.9499 4.44097 16.982C4.6009 17.0141 4.75285 17.0789 4.88768 17.1727C5.02251 17.2665 5.13744 17.3872 5.22556 17.5276C6.53268 19.4327 8.80363 20.5718 12.1786 20.5718C15.0314 20.5718 17.0896 19.753 18.437 18.3745C19.7844 16.996 20.5807 14.8862 20.5807 11.9641C20.5807 9.40857 19.9698 7.47703 18.9238 6.11671C17.8874 4.76793 16.3289 3.855 14.1901 3.50831C13.8736 3.45714 13.5899 3.27939 13.4014 3.0141C13.2128 2.74882 13.1347 2.4177 13.1844 2.09351Z" fill="black"/>
<path fill-rule="evenodd" clip-rule="evenodd" d="M11.8564 2.11391C11.8943 2.43064 11.7984 2.74873 11.5895 2.99824C11.3807 3.24775 11.0761 3.40826 10.7428 3.44446C9.71755 3.5439 8.71532 3.79656 7.77309 4.1931C7.46789 4.32617 7.11955 4.33861 6.8047 4.22768C6.48985 4.11674 6.23428 3.89152 6.09421 3.60156C5.95415 3.3116 5.94105 2.98065 6.05782 2.68152C6.17458 2.38239 6.41163 2.13958 6.71683 2.0065C7.90171 1.50182 9.16409 1.18087 10.4559 1.05588C10.7893 1.01981 11.1241 1.11101 11.3867 1.30942C11.6493 1.50782 11.8183 1.79719 11.8564 2.11391ZM2.26571 10.5188C2.60133 10.5188 2.92321 10.6455 3.16054 10.871C3.39786 11.0965 3.53119 11.4023 3.53119 11.7211C3.53344 12.7631 3.64255 13.7009 3.85853 14.5345C3.93773 14.8445 3.8841 15.1716 3.70943 15.444C3.53476 15.7164 3.25336 15.9117 2.92713 15.9869C2.6009 16.0622 2.25657 16.0112 1.96988 15.8453C1.68319 15.6793 1.47764 15.412 1.39843 15.102C1.12582 13.9939 0.992155 12.8591 1.00022 11.7211C1.00022 11.4023 1.13355 11.0965 1.37087 10.871C1.6082 10.6455 1.93008 10.5188 2.26571 10.5188ZM5.24381 6.0703C5.44988 5.8186 5.54228 5.49944 5.50067 5.18302C5.45906 4.8666 5.28685 4.57885 5.02193 4.38306C4.75701 4.18728 4.42107 4.09949 4.08803 4.13903C3.75498 4.17856 3.45211 4.34217 3.24603 4.59387C2.41507 5.62475 1.8124 6.80481 1.47436 8.06292C1.39577 8.36799 1.44594 8.69016 1.61415 8.96053C1.78236 9.23091 2.05525 9.42801 2.37444 9.50969C2.69364 9.59137 3.03381 9.55114 3.32219 9.39761C3.61058 9.24407 3.82427 8.98942 3.91758 8.68812C4.20949 7.65253 4.66 6.78367 5.24381 6.0703ZM12.3305 6.27549C12.6661 6.27549 12.988 6.40216 13.2253 6.62764C13.4627 6.85312 13.596 7.15893 13.596 7.4778V10.4595H16.7344C17.07 10.4595 17.3919 10.5862 17.6292 10.8117C17.8666 11.0371 17.9999 11.343 17.9999 11.6618C17.9999 11.9807 17.8666 12.2865 17.6292 12.512C17.3919 12.7375 17.07 12.8641 16.7344 12.8641H13.5943V15.8459C13.5943 16.1647 13.461 16.4705 13.2237 16.696C12.9863 16.9215 12.6645 17.0482 12.3288 17.0482C11.9932 17.0482 11.6713 16.9215 11.434 16.696C11.1967 16.4705 11.0633 16.1647 11.0633 15.8459V12.8641H7.92495C7.58932 12.8641 7.26744 12.7375 7.03011 12.512C6.79279 12.2865 6.65946 11.9807 6.65946 11.6618C6.65946 11.343 6.79279 11.0371 7.03011 10.8117C7.26744 10.5862 7.58932 10.4595 7.92495 10.4595H11.0633V7.4778C11.0633 7.15893 11.1967 6.85312 11.434 6.62764C11.6713 6.40216 11.9949 6.27549 12.3305 6.27549Z" fill="black"/>
</svg>
