<svg width="24" height="24" viewBox="0 0 24 24" fill="none" xmlns="http://www.w3.org/2000/svg">
<path opacity="0.3" fill-rule="evenodd" clip-rule="evenodd" d="M13.1844 2.09369C13.2091 1.93302 13.2645 1.77893 13.3474 1.6402C13.4302 1.50146 13.539 1.38082 13.6674 1.28516C13.7958 1.18949 13.9414 1.12068 14.0958 1.08265C14.2502 1.04463 14.4104 1.03813 14.5672 1.06354C17.1992 1.48947 19.3461 2.66324 20.824 4.58487C22.2907 6.49329 22.9999 9.01419 22.9999 11.9643C22.9999 15.342 22.0683 18.1568 20.1471 20.1263C18.2243 22.0941 15.4763 23.0483 12.1786 23.0483C8.26209 23.0483 5.13208 21.6979 3.24956 18.9508C3.15037 18.8184 3.07835 18.6668 3.03783 18.5051C2.99732 18.3434 2.98914 18.175 3.01378 18.01C3.03843 17.845 3.0954 17.6868 3.18126 17.5449C3.26712 17.403 3.38011 17.2804 3.51342 17.1844C3.64674 17.0884 3.79763 17.021 3.95703 16.9862C4.11643 16.9515 4.28104 16.9501 4.44097 16.9822C4.6009 17.0142 4.75285 17.0791 4.88768 17.1729C5.02251 17.2666 5.13744 17.3874 5.22556 17.5278C6.53268 19.4329 8.80363 20.572 12.1786 20.572C15.0314 20.572 17.0896 19.7532 18.437 18.3747C19.7844 16.9962 20.5807 14.8864 20.5807 11.9643C20.5807 9.40875 19.9698 7.47722 18.9238 6.11689C17.8874 4.76812 16.3289 3.85518 14.1901 3.50849C13.8736 3.45733 13.5899 3.27957 13.4014 3.01429C13.2128 2.749 13.1347 2.41788 13.1844 2.09369Z" fill="#7239EA"/>
<path fill-rule="evenodd" clip-rule="evenodd" d="M11.8564 2.11409C11.8943 2.43083 11.7984 2.74892 11.5895 2.99843C11.3807 3.24794 11.0761 3.40844 10.7428 3.44465C9.71755 3.54408 8.71532 3.79674 7.77309 4.19328C7.46789 4.32636 7.11955 4.3388 6.8047 4.22786C6.48985 4.11693 6.23428 3.89171 6.09421 3.60175C5.95415 3.31179 5.94105 2.98084 6.05782 2.68171C6.17458 2.38257 6.41163 2.13976 6.71683 2.00669C7.90171 1.502 9.16409 1.18105 10.4559 1.05606C10.7893 1.02 11.1241 1.11119 11.3867 1.3096C11.6493 1.508 11.8183 1.79738 11.8564 2.11409ZM2.26571 10.519C2.60133 10.519 2.92321 10.6457 3.16054 10.8712C3.39786 11.0966 3.53119 11.4025 3.53119 11.7213C3.53344 12.7633 3.64255 13.7011 3.85853 14.5347C3.93773 14.8447 3.8841 15.1718 3.70943 15.4442C3.53476 15.7166 3.25336 15.9119 2.92713 15.9871C2.6009 16.0624 2.25657 16.0114 1.96988 15.8455C1.68319 15.6795 1.47764 15.4122 1.39843 15.1022C1.12582 13.9941 0.992155 12.8593 1.00022 11.7213C1.00022 11.4025 1.13355 11.0966 1.37087 10.8712C1.6082 10.6457 1.93008 10.519 2.26571 10.519ZM5.24381 6.07048C5.44988 5.81879 5.54228 5.49962 5.50067 5.18321C5.45906 4.86679 5.28685 4.57903 5.02193 4.38325C4.75701 4.18746 4.42107 4.09968 4.08803 4.13921C3.75498 4.17874 3.45211 4.34235 3.24603 4.59405C2.41507 5.62493 1.8124 6.80499 1.47436 8.06311C1.39577 8.36817 1.44594 8.69035 1.61415 8.96072C1.78236 9.23109 2.05525 9.42819 2.37444 9.50987C2.69364 9.59155 3.03381 9.55132 3.32219 9.39779C3.61058 9.24426 3.82427 8.9896 3.91758 8.6883C4.20949 7.65272 4.66 6.78385 5.24381 6.07048ZM12.3305 6.27568C12.6661 6.27568 12.988 6.40235 13.2253 6.62782C13.4627 6.8533 13.596 7.15911 13.596 7.47798V10.4597H16.7344C17.07 10.4597 17.3919 10.5864 17.6292 10.8119C17.8666 11.0373 17.9999 11.3431 17.9999 11.662C17.9999 11.9809 17.8666 12.2867 17.6292 12.5122C17.3919 12.7376 17.07 12.8643 16.7344 12.8643H13.5943V15.846C13.5943 16.1649 13.461 16.4707 13.2237 16.6962C12.9863 16.9217 12.6645 17.0483 12.3288 17.0483C11.9932 17.0483 11.6713 16.9217 11.434 16.6962C11.1967 16.4707 11.0633 16.1649 11.0633 15.846V12.8643H7.92495C7.58932 12.8643 7.26744 12.7376 7.03011 12.5122C6.79279 12.2867 6.65946 11.9809 6.65946 11.662C6.65946 11.3431 6.79279 11.0373 7.03011 10.8119C7.26744 10.5864 7.58932 10.4597 7.92495 10.4597H11.0633V7.47798C11.0633 7.15911 11.1967 6.8533 11.434 6.62782C11.6713 6.40235 11.9949 6.27568 12.3305 6.27568Z" fill="#7239EA"/>
</svg>
