<svg width="24" height="24" viewBox="0 0 24 24" fill="none" xmlns="http://www.w3.org/2000/svg">
<path d="M11.9999 8.66525C10.1637 8.66525 8.66518 10.1638 8.66518 12C8.66518 13.8362 10.1637 15.3348 11.9999 15.3348C13.8361 15.3348 15.3346 13.8362 15.3346 12C15.3346 10.1638 13.8361 8.66525 11.9999 8.66525ZM22.0014 12C22.0014 10.6191 22.014 9.25064 21.9364 7.87221C21.8589 6.27113 21.4936 4.85017 20.3228 3.67938C19.1496 2.50609 17.7311 2.14334 16.1301 2.06579C14.7492 1.98824 13.3808 2.00074 12.0024 2.00074C10.6215 2.00074 9.25307 1.98824 7.87467 2.06579C6.27361 2.14334 4.85268 2.50859 3.68191 3.67938C2.50864 4.85267 2.1459 6.27113 2.06835 7.87221C1.9908 9.25314 2.00331 10.6216 2.00331 12C2.00331 13.3784 1.9908 14.7494 2.06835 16.1278C2.1459 17.7289 2.51114 19.1498 3.68191 20.3206C4.85518 21.4939 6.27361 21.8567 7.87467 21.9342C9.25557 22.0118 10.624 21.9993 12.0024 21.9993C13.3833 21.9993 14.7517 22.0118 16.1301 21.9342C17.7311 21.8567 19.1521 21.4914 20.3228 20.3206C21.4961 19.1473 21.8589 17.7289 21.9364 16.1278C22.0165 14.7494 22.0014 13.3809 22.0014 12ZM11.9999 17.131C9.16051 17.131 6.869 14.8394 6.869 12C6.869 9.16058 9.16051 6.86903 11.9999 6.86903C14.8392 6.86903 17.1307 9.16058 17.1307 12C17.1307 14.8394 14.8392 17.131 11.9999 17.131ZM17.3409 7.8572C16.6779 7.8572 16.1426 7.32184 16.1426 6.65889C16.1426 5.99594 16.6779 5.46058 17.3409 5.46058C18.0038 5.46058 18.5392 5.99594 18.5392 6.65889C18.5394 6.81631 18.5085 6.97222 18.4484 7.1177C18.3882 7.26317 18.3 7.39535 18.1886 7.50666C18.0773 7.61798 17.9452 7.70624 17.7997 7.76639C17.6542 7.82654 17.4983 7.8574 17.3409 7.8572Z" fill="black"/>
</svg>
