<svg width="24" height="24" viewBox="0 0 24 24" fill="none" xmlns="http://www.w3.org/2000/svg">
<path fill-rule="evenodd" clip-rule="evenodd" d="M21.9187 7.66667C21.8836 6.75991 21.8302 5.85394 21.7587 4.94933C21.6396 3.488 20.512 2.36044 19.0507 2.24178C17.5969 2.12356 15.2898 2 12 2C10.7965 2 9.72445 2.01644 8.77779 2.04311V7.66667H21.9187ZM4.94935 2.24178C5.55557 2.19289 6.31024 2.14222 7.22223 2.10044V7.66667H2.08135C2.12624 6.55244 2.1849 5.65111 2.24179 4.94933C2.36046 3.488 3.48801 2.36044 4.94935 2.24178ZM2.24179 19.0507C2.1849 18.3484 2.12624 17.4476 2.08179 16.3333H7.22223V21.8996C6.46384 21.8657 5.70609 21.8186 4.94935 21.7582C3.48801 21.6396 2.36046 20.512 2.24179 19.0507ZM8.77779 16.3333V21.9569C9.72445 21.9836 10.7965 22 12 22C15.2898 22 17.5969 21.8764 19.0507 21.7582C20.512 21.6396 21.6396 20.512 21.7582 19.0507C21.8156 18.3484 21.8738 17.4476 21.9187 16.3333H8.77779ZM22 12C22 13.0191 21.988 13.9436 21.9684 14.7778H8.77779V9.22222H21.9684C21.988 10.0564 22 10.9809 22 12ZM2.03157 9.22222C2.01005 10.148 1.99953 11.074 2.00002 12C2.00002 13.0191 2.01202 13.9436 2.03157 14.7778H7.22223V9.22222H2.03157Z" fill="black"/>
</svg>
