<svg width="20" height="20" viewBox="0 0 20 20" fill="none" xmlns="http://www.w3.org/2000/svg">
<g opacity="0.5">
<path fill-rule="evenodd" clip-rule="evenodd" d="M6.91071 10.5892C6.75448 10.4329 6.66672 10.221 6.66672 10C6.66672 9.77903 6.75448 9.56711 6.91071 9.41083L11.6249 4.69667C11.7017 4.61708 11.7937 4.55359 11.8954 4.50992C11.997 4.46624 12.1064 4.44325 12.217 4.44229C12.3277 4.44133 12.4374 4.46242 12.5398 4.50432C12.6423 4.54622 12.7353 4.60809 12.8135 4.68634C12.8918 4.76458 12.9537 4.85763 12.9956 4.96004C13.0375 5.06245 13.0585 5.17219 13.0576 5.28284C13.0566 5.39348 13.0336 5.50283 12.99 5.6045C12.9463 5.70617 12.8828 5.79813 12.8032 5.875L8.67821 10L12.8032 14.125C12.955 14.2822 13.039 14.4927 13.0371 14.7112C13.0352 14.9297 12.9476 15.1387 12.7931 15.2932C12.6386 15.4477 12.4295 15.5353 12.211 15.5372C11.9925 15.5391 11.782 15.4551 11.6249 15.3033L6.91071 10.5892Z" fill="#0D0F17"/>
</g>
</svg>
