<svg width="24" height="24" viewBox="0 0 24 24" fill="none" xmlns="http://www.w3.org/2000/svg">
<path d="M4.50005 12.75C4.89788 12.75 5.27941 12.592 5.56071 12.3107C5.84202 12.0294 6.00005 11.6478 6.00005 11.25C6.00005 10.8522 5.84202 10.4706 5.56071 10.1893C5.27941 9.90804 4.89788 9.75 4.50005 9.75C4.10223 9.75 3.7207 9.90804 3.43939 10.1893C3.15809 10.4706 3.00005 10.8522 3.00005 11.25C3.00005 11.6478 3.15809 12.0294 3.43939 12.3107C3.7207 12.592 4.10223 12.75 4.50005 12.75Z" fill="black"/>
<path fill-rule="evenodd" clip-rule="evenodd" d="M6.75005 4.5C9.09005 4.5 11.1601 5.691 12.3751 7.5H20.2651C20.5008 7.49992 20.7333 7.55543 20.9436 7.66203C21.154 7.76862 21.3362 7.92329 21.4756 8.1135L23.7106 11.1735C23.8908 11.4172 23.9922 11.7102 24.001 12.0132C24.0099 12.3162 23.9258 12.6147 23.7601 12.8685L21.8701 15.7935C21.761 15.9626 21.6189 16.1079 21.4523 16.2208C21.2857 16.3337 21.0981 16.4118 20.9006 16.4505C20.7032 16.4891 20.4999 16.4875 20.3031 16.4458C20.1062 16.404 19.9198 16.323 19.7551 16.2075L18.0301 15L16.2451 16.218C15.9955 16.3889 15.7 16.4804 15.3976 16.4804C15.0951 16.4804 14.7996 16.3889 14.5501 16.218L12.7651 15H12.3781C11.1661 16.815 9.10805 18 6.75305 18C4.96284 18 3.24595 17.2888 1.98008 16.023C0.714211 14.7571 0.00305176 13.0402 0.00305176 11.25C0.00305176 9.45979 0.714211 7.7429 1.98008 6.47703C3.24595 5.21116 4.96284 4.5 6.75305 4.5H6.75005ZM12.3751 13.5C12.1283 13.4998 11.8853 13.5605 11.6676 13.6766C11.4499 13.7928 11.2642 13.9609 11.1271 14.166C10.1821 15.576 8.57705 16.506 6.76205 16.506C3.86705 16.506 1.51205 14.151 1.51205 11.256C1.51205 8.361 3.86705 6.006 6.76205 6.006C8.57705 6.006 10.1821 6.93 11.1271 8.346C11.4061 8.7615 11.8741 9.012 12.3751 9.012H20.2651L22.5001 12.072L20.6101 14.997L18.8851 13.7895C18.6347 13.6142 18.3368 13.5196 18.0312 13.5182C17.7256 13.5169 17.4269 13.6089 17.1751 13.782L15.3901 15L13.6051 13.782C13.3551 13.6108 13.0591 13.5192 12.7561 13.5195H12.3691L12.3751 13.5Z" fill="black"/>
</svg>
