<svg width="24" height="24" viewBox="0 0 24 24" fill="none" xmlns="http://www.w3.org/2000/svg">
<path opacity="0.3" d="M13.4939 5.54051L6.49569 12.539C6.27225 12.7624 6.16102 12.8737 6.09051 13.0117C6.01901 13.1498 5.99319 13.3057 5.94155 13.6175L5.16695 18.2623C5.11531 18.5742 5.08849 18.7311 5.17886 18.8214C5.26923 18.9118 5.42614 18.885 5.73797 18.8334L10.3836 18.0587C10.6944 18.0071 10.8503 17.9813 10.9894 17.9098C11.1264 17.8392 11.2376 17.728 11.4611 17.5046L18.4593 10.5061C19.4693 9.49609 19.9748 8.99059 20.086 8.3838C20.1307 8.14545 20.1307 7.90114 20.086 7.6628C19.9748 7.056 19.4703 6.55051 18.4593 5.54051C17.4484 4.53051 16.9439 4.02502 16.3371 3.91379C16.0988 3.8698 15.8544 3.8698 15.6161 3.91379C15.0094 4.02502 14.5039 4.52952 13.4939 5.54051Z" fill="black"/>
<path d="M12.501 6.39157L6.53514 12.3574C6.30529 12.5873 6.19088 12.7017 6.11835 12.8437C6.0448 12.9857 6.01824 13.1461 5.96512 13.4668L5.16831 18.2446C5.11519 18.5654 5.0876 18.7268 5.18057 18.8197C5.27353 18.9127 5.43493 18.8851 5.7557 18.832L10.5345 18.0352C10.8543 17.9821 11.0146 17.9555 11.1577 17.882C11.2986 17.8094 11.413 17.695 11.6429 17.4652L17.6087 11.4993C17.9489 11.1591 18.1195 10.9885 18.1195 10.7771C18.1195 10.5656 17.9489 10.395 17.6087 10.0548L13.9455 6.39157C13.6053 6.0514 13.4347 5.8808 13.2232 5.8808C13.0118 5.8808 12.8412 6.0514 12.501 6.39157Z" fill="black"/>
</svg>
