<svg width="40" height="40" viewBox="0 0 40 40" fill="none" xmlns="http://www.w3.org/2000/svg">
<path d="M20 3.33334C16.7037 3.33334 13.4814 4.31083 10.7405 6.14218C7.99972 7.97354 5.86352 10.5765 4.60206 13.622C3.3406 16.6674 3.01054 20.0185 3.65363 23.2515C4.29671 26.4845 5.88406 29.4542 8.21494 31.7851C10.5458 34.116 13.5155 35.7033 16.7485 36.3464C19.9816 36.9895 23.3327 36.6595 26.3781 35.398C29.4235 34.1365 32.0265 32.0003 33.8579 29.2595C35.6892 26.5187 36.6667 23.2964 36.6667 20C36.6667 17.8113 36.2356 15.644 35.398 13.622C34.5605 11.5999 33.3328 9.76254 31.7852 8.2149C30.2375 6.66725 28.4002 5.4396 26.3781 4.60202C24.356 3.76444 22.1887 3.33334 20 3.33334ZM16.6667 27.5V12.5L26.6667 20L16.6667 27.5Z" fill="white"/>
</svg>
