<svg width="24" height="24" viewBox="0 0 24 24" fill="none" xmlns="http://www.w3.org/2000/svg">
<path opacity="0.3" fill-rule="evenodd" clip-rule="evenodd" d="M12.75 0.25C12.4847 0.25 12.2304 0.355357 12.0428 0.542893C11.8553 0.73043 11.75 0.984784 11.75 1.25V2.75C11.75 3.01522 11.8553 3.26957 12.0428 3.45711C12.2304 3.64464 12.4847 3.75 12.75 3.75C13.0152 3.75 13.2695 3.64464 13.4571 3.45711C13.6446 3.26957 13.75 3.01522 13.75 2.75V1.25C13.75 0.984784 13.6446 0.73043 13.4571 0.542893C13.2695 0.355357 13.0152 0.25 12.75 0.25ZM4.24995 10.75C3.98474 10.75 3.73038 10.6446 3.54285 10.4571C3.35531 10.2696 3.24995 10.0152 3.24995 9.75C3.24995 9.48478 3.35531 9.23043 3.54285 9.04289C3.73038 8.85536 3.98474 8.75 4.24995 8.75H5.74995C6.01517 8.75 6.26952 8.85536 6.45706 9.04289C6.6446 9.23043 6.74995 9.48478 6.74995 9.75C6.74995 10.0152 6.6446 10.2696 6.45706 10.4571C6.26952 10.6446 6.01517 10.75 5.74995 10.75H4.24995ZM21.25 10.75C21.5152 10.75 21.7695 10.6446 21.9571 10.4571C22.1446 10.2696 22.25 10.0152 22.25 9.75C22.25 9.48478 22.1446 9.23043 21.9571 9.04289C21.7695 8.85536 21.5152 8.75 21.25 8.75H19.75C19.4847 8.75 19.2304 8.85536 19.0428 9.04289C18.8553 9.23043 18.75 9.48478 18.75 9.75C18.75 10.0152 18.8553 10.2696 19.0428 10.4571C19.2304 10.6446 19.4847 10.75 19.75 10.75H21.25ZM6.03195 4.4475C5.84445 4.25993 5.73913 4.00555 5.73918 3.74032C5.73923 3.4751 5.84463 3.22076 6.0322 3.03325C6.21978 2.84574 6.47416 2.74043 6.73938 2.74047C7.0046 2.74052 7.25895 2.84593 7.44645 3.0335L8.50695 4.0935C8.59986 4.18634 8.67358 4.29658 8.72389 4.41791C8.77419 4.53924 8.80011 4.6693 8.80016 4.80065C8.8002 4.93199 8.77438 5.06207 8.72416 5.18343C8.67393 5.3048 8.6003 5.41509 8.50745 5.508C8.41461 5.60091 8.30437 5.67462 8.18304 5.72493C8.06171 5.77524 7.93166 5.80116 7.80031 5.8012C7.66896 5.80125 7.53889 5.77542 7.41752 5.7252C7.29615 5.67498 7.18586 5.60134 7.09295 5.5085L6.03195 4.4475ZM19.467 3.0335C19.6544 3.22103 19.7597 3.47534 19.7597 3.7405C19.7597 4.00566 19.6544 4.25997 19.467 4.4475L18.406 5.508C18.3137 5.60351 18.2034 5.67969 18.0814 5.7321C17.9594 5.78451 17.8281 5.8121 17.6954 5.81325C17.5626 5.8144 17.4309 5.7891 17.308 5.73882C17.1851 5.68854 17.0735 5.61429 16.9796 5.52039C16.8857 5.4265 16.8114 5.31485 16.7611 5.19195C16.7109 5.06906 16.6856 4.93738 16.6867 4.8046C16.6879 4.67182 16.7154 4.5406 16.7679 4.4186C16.8203 4.29659 16.8964 4.18625 16.992 4.094L18.0525 3.0335C18.1453 2.9406 18.2556 2.8669 18.3769 2.81662C18.4983 2.76634 18.6283 2.74046 18.7597 2.74046C18.8911 2.74046 19.0211 2.76634 19.1425 2.81662C19.2638 2.8669 19.3741 2.9406 19.467 3.0335ZM15.4295 17.985C15.4521 18.038 15.4743 18.091 15.496 18.144C14.476 18.4565 13.461 18.756 12.48 19.037L12.6185 19.553C12.8447 20.3972 12.7263 21.2968 12.2893 22.0537C11.8523 22.8107 11.1325 23.363 10.2882 23.5893C9.44395 23.8155 8.54441 23.6971 7.78747 23.2601C7.03052 22.8231 6.47818 22.1033 6.25195 21.259L6.11895 20.763C5.62895 20.888 5.20895 20.9945 4.87395 21.078C4.04945 21.284 3.15145 21.006 2.62245 20.287C2.43245 20.028 2.21995 19.722 2.04895 19.425C1.87888 19.1244 1.72531 18.8148 1.58895 18.4975C1.23095 17.68 1.43895 16.763 2.02995 16.152C3.33495 14.802 6.47595 11.594 9.88195 8.42L9.98545 8.555C10.153 8.776 10.3965 9.104 10.695 9.527C11.5104 10.6873 12.2735 11.8835 12.982 13.112C13.6916 14.3398 14.3459 15.5987 14.943 16.885C15.1605 17.355 15.3225 17.73 15.4295 17.985ZM8.05445 20.258L8.18395 20.741C8.22795 20.9053 8.30387 21.0594 8.4074 21.1943C8.51092 21.3293 8.64002 21.4426 8.78732 21.5276C8.93461 21.6127 9.09723 21.668 9.26587 21.6902C9.43451 21.7124 9.60589 21.7012 9.7702 21.6572C9.93452 21.6133 10.0886 21.5373 10.2235 21.4338C10.3585 21.3303 10.4718 21.2012 10.5569 21.0539C10.6419 20.9066 10.6972 20.744 10.7194 20.5753C10.7416 20.4067 10.7304 20.2353 10.6865 20.071L10.555 19.58C9.66145 19.8275 8.81895 20.055 8.05445 20.258Z" fill="#99A1B7"/>
<path fill-rule="evenodd" clip-rule="evenodd" d="M12.5245 5.02C12.6714 4.88582 12.8654 4.81544 13.0641 4.82435C13.2628 4.83326 13.4498 4.92072 13.584 5.0675L13.5855 5.069L13.587 5.071L13.592 5.076L13.607 5.093L13.657 5.1515C13.7004 5.2015 13.7617 5.276 13.841 5.375C14.0005 5.575 14.2335 5.879 14.54 6.312C15.1525 7.177 16.061 8.5575 17.263 10.64C18.4655 12.722 19.2065 14.1985 19.6495 15.1625C19.8137 15.5159 19.9678 15.8738 20.1115 16.236C20.1562 16.3496 20.1985 16.4642 20.2385 16.5795L20.2455 16.601L20.248 16.608L20.249 16.6115C20.3067 16.7993 20.2884 17.0032 20.198 17.1776C20.1077 17.352 19.9525 17.4841 19.7659 17.5453C19.5792 17.6065 19.376 17.5921 19.1999 17.5051C19.0238 17.4181 18.8888 17.2654 18.824 17.08C18.2015 17.289 17.569 17.495 16.933 17.6965C16.7341 17.2118 16.5245 16.7315 16.3045 16.256C15.6886 14.9283 15.0134 13.6288 14.281 12.3615C13.55 11.0937 12.7626 9.85931 11.921 8.662C11.6194 8.23427 11.3085 7.81317 10.9885 7.399C11.481 6.949 11.9755 6.504 12.468 6.0695C12.3381 5.92206 12.2711 5.72948 12.2817 5.5332C12.2923 5.33692 12.3795 5.15264 12.5245 5.02Z" fill="#99A1B7"/>
<path fill-rule="evenodd" clip-rule="evenodd" d="M12.75 0.25C12.4848 0.25 12.2304 0.355357 12.0429 0.542893C11.8554 0.73043 11.75 0.984784 11.75 1.25V2.75C11.75 3.01522 11.8554 3.26957 12.0429 3.45711C12.2304 3.64464 12.4848 3.75 12.75 3.75C13.0152 3.75 13.2696 3.64464 13.4571 3.45711C13.6446 3.26957 13.75 3.01522 13.75 2.75V1.25C13.75 0.984784 13.6446 0.73043 13.4571 0.542893C13.2696 0.355357 13.0152 0.25 12.75 0.25ZM4.25 10.75C3.98478 10.75 3.73043 10.6446 3.54289 10.4571C3.35536 10.2696 3.25 10.0152 3.25 9.75C3.25 9.48478 3.35536 9.23043 3.54289 9.04289C3.73043 8.85536 3.98478 8.75 4.25 8.75H5.75C6.01522 8.75 6.26957 8.85536 6.45711 9.04289C6.64464 9.23043 6.75 9.48478 6.75 9.75C6.75 10.0152 6.64464 10.2696 6.45711 10.4571C6.26957 10.6446 6.01522 10.75 5.75 10.75H4.25ZM21.25 10.75C21.5152 10.75 21.7696 10.6446 21.9571 10.4571C22.1446 10.2696 22.25 10.0152 22.25 9.75C22.25 9.48478 22.1446 9.23043 21.9571 9.04289C21.7696 8.85536 21.5152 8.75 21.25 8.75H19.75C19.4848 8.75 19.2304 8.85536 19.0429 9.04289C18.8554 9.23043 18.75 9.48478 18.75 9.75C18.75 10.0152 18.8554 10.2696 19.0429 10.4571C19.2304 10.6446 19.4848 10.75 19.75 10.75H21.25ZM6.032 4.4475C5.84449 4.25993 5.73918 4.00555 5.73922 3.74032C5.73927 3.4751 5.84468 3.22076 6.03225 3.03325C6.21982 2.84574 6.4742 2.74043 6.73943 2.74047C7.00465 2.74052 7.25899 2.84593 7.4465 3.0335L8.507 4.0935C8.59991 4.18634 8.67362 4.29658 8.72393 4.41791C8.77424 4.53924 8.80016 4.6693 8.8002 4.80065C8.80025 4.93199 8.77442 5.06207 8.7242 5.18343C8.67398 5.3048 8.60034 5.41509 8.5075 5.508C8.41466 5.60091 8.30442 5.67462 8.18309 5.72493C8.06176 5.77524 7.9317 5.80116 7.80035 5.8012C7.669 5.80125 7.53893 5.77542 7.41757 5.7252C7.2962 5.67498 7.18591 5.60134 7.093 5.5085L6.032 4.4475ZM19.467 3.0335C19.6545 3.22103 19.7598 3.47534 19.7598 3.7405C19.7598 4.00566 19.6545 4.25997 19.467 4.4475L18.406 5.508C18.3138 5.60351 18.2034 5.67969 18.0814 5.7321C17.9594 5.78451 17.8282 5.8121 17.6954 5.81325C17.5626 5.8144 17.4309 5.7891 17.308 5.73882C17.1852 5.68854 17.0735 5.61429 16.9796 5.52039C16.8857 5.4265 16.8115 5.31485 16.7612 5.19195C16.7109 5.06906 16.6856 4.93738 16.6868 4.8046C16.6879 4.67182 16.7155 4.5406 16.7679 4.4186C16.8203 4.29659 16.8965 4.18625 16.992 4.094L18.0525 3.0335C18.1454 2.9406 18.2556 2.8669 18.377 2.81662C18.4983 2.76634 18.6284 2.74046 18.7597 2.74046C18.8911 2.74046 19.0212 2.76634 19.1425 2.81662C19.2639 2.8669 19.3741 2.9406 19.467 3.0335Z" fill="#99A1B7"/>
</svg>
