<svg width="98" height="64" viewBox="0 0 98 64" fill="none" xmlns="http://www.w3.org/2000/svg">
<rect x="0.5" y="0.5" width="97" height="63" rx="4.5" stroke="#9747FF" stroke-dasharray="10 5"/>
<path d="M32 42C30.0222 42 28.0888 41.4135 26.4443 40.3147C24.7998 39.2159 23.5181 37.6541 22.7612 35.8268C22.0043 33.9996 21.8063 31.9889 22.1922 30.0491C22.578 28.1093 23.5304 26.3275 24.9289 24.9289C26.3275 23.5304 28.1093 22.578 30.0491 22.1922C31.9889 21.8063 33.9996 22.0043 35.8268 22.7612C37.6541 23.5181 39.2159 24.7998 40.3147 26.4443C41.4135 28.0888 42 30.0222 42 32C42 34.6522 40.9464 37.1957 39.0711 39.0711C37.1957 40.9464 34.6522 42 32 42ZM32 24C30.4178 24 28.871 24.4692 27.5554 25.3482C26.2398 26.2273 25.2145 27.4767 24.609 28.9385C24.0035 30.4003 23.845 32.0089 24.1537 33.5607C24.4624 35.1126 25.2243 36.538 26.3432 37.6569C27.462 38.7757 28.8874 39.5376 30.4393 39.8463C31.9911 40.155 33.5997 39.9965 35.0615 39.391C36.5233 38.7855 37.7727 37.7602 38.6518 36.4446C39.5308 35.129 40 33.5823 40 32C40 29.8783 39.1572 27.8434 37.6569 26.3432C36.1566 24.8429 34.1217 24 32 24Z" fill="#99A1B7"/>
<path d="M66 22C64.0222 22 62.0888 22.5865 60.4443 23.6853C58.7998 24.7841 57.5181 26.3459 56.7612 28.1732C56.0043 30.0004 55.8063 32.0111 56.1922 33.9509C56.578 35.8907 57.5304 37.6725 58.9289 39.0711C60.3275 40.4696 62.1093 41.422 64.0491 41.8079C65.9889 42.1937 67.9996 41.9957 69.8268 41.2388C71.6541 40.4819 73.2159 39.2002 74.3147 37.5557C75.4135 35.9112 76 33.9778 76 32C76 30.6868 75.7413 29.3864 75.2388 28.1732C74.7363 26.9599 73.9997 25.8575 73.0711 24.9289C72.1425 24.0003 71.0401 23.2638 69.8268 22.7612C68.6136 22.2587 67.3132 22 66 22ZM66 40C64.4178 40 62.871 39.5308 61.5554 38.6518C60.2398 37.7727 59.2145 36.5233 58.609 35.0615C58.0035 33.5997 57.845 31.9911 58.1537 30.4393C58.4624 28.8874 59.2243 27.462 60.3432 26.3431C61.462 25.2243 62.8874 24.4624 64.4393 24.1537C65.9911 23.845 67.5997 24.0035 69.0615 24.609C70.5233 25.2145 71.7727 26.2398 72.6518 27.5554C73.5308 28.871 74 30.4177 74 32C74 34.1217 73.1572 36.1566 71.6569 37.6569C70.1566 39.1571 68.1217 40 66 40Z" fill="#7239EA"/>
<path d="M66 27C65.0111 27 64.0444 27.2932 63.2222 27.8427C62.3999 28.3921 61.759 29.173 61.3806 30.0866C61.0022 31.0002 60.9032 32.0055 61.0961 32.9755C61.289 33.9454 61.7652 34.8363 62.4645 35.5355C63.1637 36.2348 64.0546 36.711 65.0246 36.9039C65.9945 37.0969 66.9998 36.9978 67.9134 36.6194C68.8271 36.241 69.6079 35.6001 70.1574 34.7779C70.7068 33.9556 71 32.9889 71 32C71 30.6739 70.4732 29.4021 69.5355 28.4645C68.5979 27.5268 67.3261 27 66 27Z" fill="#7239EA"/>
</svg>
