<svg width="24" height="24" viewBox="0 0 24 24" fill="none" xmlns="http://www.w3.org/2000/svg">
<path d="M20.5744 2.25661L20.7521 2.28493L20.924 2.33767C21.0356 2.38063 21.141 2.4385 21.2365 2.51052L21.3722 2.62868L21.4894 2.76443C21.5613 2.86003 21.6195 2.96522 21.6623 3.07693L21.715 3.24978L21.7433 3.42751C21.7586 3.60625 21.7361 3.78704 21.6769 3.95779L21.676 3.95974L15.7521 20.8894V20.8904C15.667 21.1332 15.5106 21.3447 15.3039 21.4978C15.0969 21.651 14.8483 21.7384 14.591 21.7488C14.3338 21.7592 14.0791 21.6924 13.8605 21.5564C13.6419 21.4204 13.4688 21.2215 13.3644 20.9861L10.1789 13.8201L3.01287 10.6345L3.01189 10.6336C2.7774 10.5288 2.57992 10.3557 2.44451 10.1375C2.30914 9.91919 2.24183 9.6656 2.25213 9.40896L2.27459 9.21853C2.3106 9.03077 2.38764 8.85215 2.50213 8.69704L2.62713 8.55251C2.7623 8.41718 2.92669 8.31302 3.10857 8.2488L3.11052 8.24782L20.0402 2.32302L20.0431 2.32204C20.2142 2.263 20.3954 2.24098 20.5744 2.25661ZM4.11834 9.48318L10.5803 12.3582L13.4699 9.4695C13.7628 9.1768 14.2376 9.17671 14.5304 9.4695C14.8233 9.76234 14.8232 10.2371 14.5304 10.5301L11.6418 13.4177L14.5148 19.8816L20.1115 3.8865L4.11834 9.48318Z" fill="black"/>
</svg>
