<svg width="24" height="24" viewBox="0 0 24 24" fill="none" xmlns="http://www.w3.org/2000/svg">
<path d="M16.7368 8.65445C16.8421 8.65445 16.9368 8.66474 17.0316 8.66474L3.46316 3.07838C2.76842 2.80061 2 3.29443 2 4.03516V7.85199C2 8.32524 2.32632 8.73676 2.8 8.84992L10.4211 10.712L2.8 12.5742C2.32632 12.6873 2 13.0988 2 13.5721V17.3889C2 18.1297 2.76842 18.6235 3.46316 18.3354L9.36842 15.9075V15.856C9.36842 11.8849 12.6737 8.65445 16.7368 8.65445Z" fill="black"/>
<path d="M16.7368 10.712C13.8316 10.712 11.4737 13.0165 11.4737 15.856C11.4737 18.6955 13.8316 21 16.7368 21C19.6421 21 22 18.6955 22 15.856C22 13.0165 19.6421 10.712 16.7368 10.712ZM18.0947 17.9136L16.3579 16.2161C16.2587 16.1211 16.202 15.9917 16.2 15.856V13.284C16.2 12.996 16.4316 12.7696 16.7263 12.7696C17.0211 12.7696 17.2526 12.996 17.2526 13.284V15.64L18.8316 17.1832C19.0421 17.3889 19.0421 17.7079 18.8316 17.9136C18.6316 18.1194 18.3053 18.1194 18.0947 17.9136Z" fill="black"/>
</svg>
