<svg width="24" height="24" viewBox="0 0 24 24" fill="none" xmlns="http://www.w3.org/2000/svg">
<path d="M16.3271 15C16.3271 14.4033 16.0899 13.8311 15.668 13.4092C15.246 12.9873 14.6738 12.75 14.0771 12.75H9.92285C9.32617 12.75 8.75395 12.9873 8.33203 13.4092C7.91012 13.8311 7.67285 14.4033 7.67285 15V19.5H16.3271V15ZM13.1543 4.5H8.30762V6.19238C8.30772 6.52377 8.4395 6.84184 8.67383 7.07617C8.90816 7.3105 9.22623 7.44228 9.55762 7.44238H11.9043C12.2357 7.4423 12.5537 7.3105 12.7881 7.07617C13.0224 6.84184 13.1542 6.52377 13.1543 6.19238V4.5ZM3.00488 7.03906C3.05703 5.98869 3.49794 4.99229 4.24512 4.24512C5.04215 3.44809 6.12283 3 7.25 3H13.9297C14.4222 2.99994 14.9102 3.09672 15.3652 3.28516C15.8203 3.47364 16.2338 3.75036 16.582 4.09863L19.7549 7.27148C20.1495 7.66614 20.4632 8.13477 20.6768 8.65039C20.8903 9.16605 21 9.71921 21 10.2773V17.0771C21 18.1175 20.5863 19.1149 19.8506 19.8506C19.1149 20.5863 18.1175 21 17.0771 21H6.92285C5.88246 21 4.88508 20.5863 4.14941 19.8506C3.41374 19.1149 3.00004 18.1175 3 17.0771V7.25L3.00488 7.03906ZM14.6543 6.19238C14.6542 6.92159 14.3643 7.62108 13.8486 8.13672C13.333 8.65235 12.6335 8.9423 11.9043 8.94238H9.55762C8.82841 8.94228 8.12892 8.65235 7.61328 8.13672C7.09765 7.62108 6.80772 6.92159 6.80762 6.19238V4.53906C6.24246 4.63129 5.7158 4.89553 5.30566 5.30566C4.78994 5.82139 4.5 6.52065 4.5 7.25V17.0771C4.50004 17.7197 4.7556 18.3357 5.20996 18.79C5.48237 19.0624 5.81329 19.2617 6.17285 19.3789V15C6.17285 14.0055 6.56827 13.0519 7.27148 12.3486C7.97471 11.6454 8.92834 11.25 9.92285 11.25H14.0771C15.0717 11.25 16.0253 11.6454 16.7285 12.3486C17.4317 13.0519 17.8271 14.0055 17.8271 15V19.3789C18.1867 19.2617 18.5176 19.0624 18.79 18.79C19.2444 18.3357 19.5 17.7197 19.5 17.0771V10.2773C19.5 9.91626 19.4292 9.55822 19.291 9.22461C19.1528 8.89095 18.9497 8.58741 18.6943 8.33203L15.5215 5.15918C15.3125 4.95019 15.0641 4.784 14.791 4.6709C14.7462 4.65235 14.7001 4.63764 14.6543 4.62207V6.19238Z" fill="black"/>
</svg>
