<svg width="24" height="24" viewBox="0 0 24 24" fill="none" xmlns="http://www.w3.org/2000/svg">
<path d="M17.9998 10.9998C17.9997 10.0806 17.8193 9.17031 17.4675 8.32108C17.1158 7.4719 16.5998 6.70054 15.95 6.05057C15.2999 5.40054 14.5278 4.88478 13.6785 4.53299C12.8292 4.18125 11.919 3.99979 10.9998 3.99979C10.0805 3.99981 9.17029 4.18122 8.32104 4.53299C7.47181 4.88478 6.70052 5.40058 6.05054 6.05057C4.73779 7.36331 3.99981 9.14329 3.99976 10.9998C3.99976 12.8564 4.73774 14.6372 6.05054 15.95C7.36325 17.2625 9.14339 17.9997 10.9998 17.9998C12.8563 17.9998 14.6372 17.2628 15.95 15.95C16.6 15.3 17.1157 14.5278 17.4675 13.6785C17.8192 12.8293 17.9998 11.9189 17.9998 10.9998ZM19.9998 10.9998C19.9998 12.1817 19.7675 13.3522 19.3152 14.4441C18.991 15.2267 18.5567 15.9567 18.03 16.616L21.7068 20.2928C22.0973 20.6833 22.0973 21.3163 21.7068 21.7068C21.3163 22.0973 20.6832 22.0973 20.2927 21.7068L16.616 18.0301C15.0287 19.2981 13.051 19.9998 10.9998 19.9998C8.61283 19.9997 6.32332 19.0519 4.6355 17.364C2.94776 15.6762 1.99976 13.3867 1.99976 10.9998C1.99981 8.61286 2.94768 6.32335 4.6355 4.63553C5.47114 3.79989 6.46363 3.13763 7.55542 2.68533C8.64731 2.23306 9.8179 1.99981 10.9998 1.99979C12.1817 1.99979 13.3521 2.23303 14.4441 2.68533C15.5359 3.1376 16.5283 3.7999 17.364 4.63553C18.1997 5.47122 18.8629 6.46358 19.3152 7.55545C19.7675 8.64734 19.9997 9.81793 19.9998 10.9998Z" fill="black"/>
</svg>
