<svg width="24" height="24" viewBox="0 0 24 24" fill="none" xmlns="http://www.w3.org/2000/svg">
<path d="M2.5 18.5466V3L16.543 9.20445H16.463C16.1192 9.23518 15.7727 9.28757 15.4236 9.36163C15.0744 9.43569 14.7703 9.53496 14.5111 9.65944L3.64348 4.90979V9.50108L9.18705 10.8188L3.64462 12.1377V16.7278L10.5455 13.6906C10.4517 13.9167 10.374 14.1645 10.3122 14.4339C10.2512 14.7026 10.2131 14.9295 10.1979 15.1146V15.1276L2.5 18.5466ZM16.9261 21C15.6523 21 14.5713 20.5415 13.6832 19.6244C12.7959 18.7065 12.3522 17.5893 12.3522 16.2728C12.3522 14.9563 12.7959 13.8395 13.6832 12.9224C14.5705 12.0053 15.6515 11.5464 16.9261 11.5456C18.1992 11.5456 19.2798 12.0045 20.1679 12.9224C21.056 13.8395 21.5 14.9563 21.5 16.2728C21.5 17.5893 21.056 18.7065 20.1679 19.6244C19.2798 20.5422 18.1992 21.0008 16.9261 21ZM18.8128 18.868L19.4372 18.2228L17.3652 16.0825V12.8633H16.4859V16.4631L18.8128 18.868ZM3.64348 13.6917V4.90979L3.64462 16.7278L3.64348 13.6917Z" fill="black"/>
</svg>
