<svg width="24" height="24" viewBox="0 0 24 24" fill="none" xmlns="http://www.w3.org/2000/svg">
<path opacity="0.3" d="M22 14V12C22 11.161 21.987 9.665 21.974 9H2.00602C1.99302 9.665 2.00602 11.161 2.00602 12V14C2.00602 17.771 2.00602 19.657 3.17602 20.828C4.34902 22 6.23402 22 10.004 22H14.004C17.774 22 19.658 22 20.83 20.828C22.002 19.656 22 17.771 22 14Z" fill="black"/>
<path d="M6.96 2C7.378 2 7.716 2.31 7.716 2.692V4.09C8.386 4.078 9.138 4.078 9.984 4.078H14.016C14.862 4.078 15.613 4.078 16.284 4.09V2.692C16.284 2.31 16.622 2 17.04 2C17.458 2 17.796 2.31 17.796 2.692V4.15C19.246 4.256 20.199 4.518 20.899 5.158C21.599 5.799 21.884 6.671 22 8V9H2V8C2.116 6.671 2.401 5.8 3.101 5.158C3.801 4.518 4.753 4.256 6.204 4.15V2.692C6.204 2.31 6.543 2 6.96 2Z" fill="black"/>
<path d="M22.1213 22.1213C22.6839 21.5587 23 20.7957 23 20C23 19.2043 22.6839 18.4413 22.1213 17.8787C21.5587 17.3161 20.7957 17 20 17C19.2043 17 18.4413 17.3161 17.8787 17.8787C17.3161 18.4413 17 19.2043 17 20C17 20.7957 17.3161 21.5587 17.8787 22.1213C18.4413 22.6839 19.2043 23 20 23C20.7957 23 21.5587 22.6839 22.1213 22.1213Z" fill="black"/>
</svg>
