<svg width="21" height="21" viewBox="0 0 21 21" fill="none" xmlns="http://www.w3.org/2000/svg">
<path opacity="0.3" d="M1.09375 14V13.125C1.09375 11.9063 1.09204 10.9261 1.19544 10.1574C1.30138 9.36985 1.52833 8.70683 2.05506 8.18009C2.51418 7.72097 3.07863 7.48852 3.74182 7.36662C4.38629 7.24817 5.17523 7.22572 6.12158 7.2205C6.48392 7.21861 6.77925 7.51097 6.78125 7.87333C6.78314 8.23567 6.49078 8.531 6.12842 8.533C5.17203 8.53828 4.49396 8.56321 3.97937 8.65775C3.48341 8.74892 3.19591 8.8952 2.98303 9.10807C2.74069 9.35043 2.58317 9.69066 2.49683 10.3326C2.40794 10.9934 2.40625 11.8692 2.40625 13.125V14C2.40625 15.2561 2.40799 16.1317 2.49683 16.7925C2.58313 17.4341 2.74053 17.775 2.98303 18.0179L3.07874 18.1042C3.31448 18.2975 3.6448 18.4277 4.20667 18.5032C4.86769 18.592 5.74422 18.5938 7 18.5938H14C15.2558 18.5938 16.1323 18.592 16.7933 18.5032C17.4353 18.4169 17.7753 18.2596 18.017 18.0179C18.2593 17.7755 18.4168 17.4353 18.5032 16.7934C18.5921 16.1324 18.5938 15.2563 18.5938 14V13.125C18.5938 11.8692 18.5921 10.9934 18.5032 10.3326C18.4168 9.69066 18.2593 9.35043 18.017 9.10807C17.8041 8.8952 17.5166 8.74892 17.0206 8.65775C16.506 8.56321 15.828 8.53828 14.8716 8.533C14.5092 8.531 14.2169 8.23567 14.2188 7.87333C14.2208 7.51097 14.5161 7.21861 14.8784 7.2205C15.8248 7.22572 16.6137 7.24817 17.2582 7.36662C17.9214 7.48852 18.4858 7.72097 18.9449 8.18009C19.4717 8.70683 19.6986 9.36985 19.8046 10.1574C19.908 10.9261 19.9063 11.9063 19.9063 13.125V14C19.9063 15.2191 19.908 16.1998 19.8046 16.9685C19.6986 17.7561 19.4717 18.4191 18.9449 18.9458C18.4185 19.4723 17.7551 19.6988 16.9677 19.8046C16.1989 19.9079 15.2187 19.9063 14 19.9063H7C5.7813 19.9063 4.80107 19.9079 4.03235 19.8046C3.29392 19.7054 2.66467 19.5 2.15503 19.0407L2.05506 18.9458C1.52858 18.4188 1.30139 17.7554 1.19544 16.9677C1.09207 16.1991 1.09375 15.219 1.09375 14Z" fill="#99A1B7"/>
<path d="M9.84372 13.125V3.52393L8.37314 5.23975C8.13725 5.5148 7.72286 5.5465 7.44772 5.31067C7.17267 5.07478 7.14097 4.66039 7.3768 4.38525L10.0018 1.32275L10.0514 1.27148C10.1723 1.15806 10.3324 1.09375 10.5 1.09375C10.6915 1.09375 10.8735 1.17739 10.9981 1.32275L13.6231 4.38525C13.859 4.66039 13.8273 5.07478 13.5522 5.31067C13.2771 5.5465 12.8627 5.5148 12.6268 5.23975L11.1562 3.52393V13.125C11.1562 13.4874 10.8624 13.7812 10.5 13.7812C10.1375 13.7812 9.84372 13.4874 9.84372 13.125Z" fill="#99A1B7"/>
</svg>
