<svg width="24" height="24" viewBox="0 0 24 24" fill="none" xmlns="http://www.w3.org/2000/svg" >
<path opacity="0.3" d="M1.25 16V15C1.25 13.6073 1.24805 12.4869 1.36621 11.6084C1.48729 10.7084 1.74667 9.95066 2.34863 9.34867C2.87335 8.82396 3.51844 8.5583 4.27637 8.41899C5.0129 8.28362 5.91454 8.25796 6.9961 8.25199C7.4102 8.24983 7.74772 8.58396 7.75 8.99809C7.75216 9.41219 7.41804 9.74971 7.00391 9.75199C5.91089 9.75803 5.13595 9.78652 4.54785 9.89457C3.98104 9.99876 3.65246 10.1659 3.40918 10.4092C3.13222 10.6862 2.95219 11.075 2.85352 11.8086C2.75193 12.5639 2.75 13.5648 2.75 15V16C2.75 17.4355 2.75198 18.4362 2.85352 19.1914C2.95214 19.9247 3.13203 20.3142 3.40918 20.5918L3.51856 20.6905C3.78798 20.9115 4.16548 21.0602 4.80762 21.1465C5.56308 21.248 6.56482 21.25 8 21.25H16C17.4352 21.25 18.4369 21.248 19.1924 21.1465C19.9261 21.0479 20.3146 20.8681 20.5908 20.5918C20.8678 20.3149 21.0478 19.9261 21.1465 19.1924C21.2481 18.437 21.25 17.4357 21.25 16V15C21.25 13.5648 21.2481 12.5639 21.1465 11.8086C21.0478 11.075 20.8678 10.6862 20.5908 10.4092C20.3475 10.1659 20.019 9.99876 19.4522 9.89457C18.864 9.78652 18.0891 9.75803 16.9961 9.75199C16.582 9.74971 16.2478 9.41219 16.25 8.99809C16.2523 8.58396 16.5898 8.24983 17.0039 8.25199C18.0855 8.25796 18.9871 8.28362 19.7236 8.41899C20.4816 8.5583 21.1267 8.82396 21.6514 9.34867C22.2533 9.95066 22.5127 10.7084 22.6338 11.6084C22.752 12.4869 22.75 13.6073 22.75 15V16C22.75 17.3933 22.7519 18.514 22.6338 19.3926C22.5127 20.2927 22.2533 21.0504 21.6514 21.6524C21.0497 22.2541 20.2916 22.5129 19.3916 22.6338C18.5131 22.7518 17.3928 22.75 16 22.75H8C6.6072 22.75 5.48694 22.7518 4.6084 22.6338C3.76447 22.5205 3.04534 22.2857 2.46289 21.7608L2.34863 21.6524C1.74695 21.05 1.4873 20.2919 1.36621 19.3916C1.24809 18.5132 1.25 17.3932 1.25 16Z" fill="white"/>
<path d="M11.25 15V4.02734L9.5693 5.98828C9.29971 6.30263 8.82612 6.33886 8.51168 6.06934C8.19734 5.79975 8.16111 5.32616 8.43063 5.01172L11.4306 1.51172L11.4873 1.45312C11.6255 1.3235 11.8084 1.25 12 1.25C12.2188 1.25 12.4268 1.34558 12.5693 1.51172L15.5693 5.01172C15.8388 5.32616 15.8026 5.79975 15.4882 6.06934C15.1738 6.33886 14.7002 6.30263 14.4306 5.98828L12.75 4.02734V15C12.75 15.4142 12.4142 15.75 12 15.75C11.5858 15.75 11.25 15.4142 11.25 15Z" fill="white"/>
</svg>
