<svg width="24" height="24" viewBox="0 0 24 24" fill="none" xmlns="http://www.w3.org/2000/svg">
<path d="M21.25 12C21.25 11.9843 21.2518 11.97 21.2207 11.9102C21.1744 11.8212 21.0966 11.7089 20.9336 11.4805C20.2734 10.5549 19.1075 9.10641 17.5566 7.89551C16.0043 6.6835 14.1189 5.75 12 5.75C9.88143 5.75 7.99591 6.68353 6.44336 7.89551C5.08628 8.95492 4.02439 10.1963 3.33789 11.1104L3.06641 11.4805C2.90308 11.7093 2.82557 11.8213 2.7793 11.9102C2.74845 11.9694 2.75 11.9835 2.75 12C2.75 12.0157 2.74817 12.03 2.7793 12.0898C2.82558 12.1788 2.90338 12.2911 3.06641 12.5195C3.72665 13.4451 4.89246 14.8936 6.44336 16.1045C7.99575 17.3165 9.88105 18.25 12 18.25C14.1186 18.25 16.0041 17.3165 17.5566 16.1045C19.1076 14.8937 20.2735 13.4454 20.9336 12.5195L21.1211 12.252C21.1666 12.1844 21.1976 12.1342 21.2207 12.0898C21.2516 12.0306 21.25 12.0165 21.25 12ZM22.75 12C22.75 12.4517 22.5639 12.7998 22.3594 13.1016L22.1543 13.3906C21.4484 14.3807 20.1865 15.9545 18.4795 17.2871C16.7738 18.6186 14.5704 19.75 12 19.75C9.42904 19.75 7.22511 18.6188 5.51953 17.2871C4.02574 16.1208 2.87335 14.7694 2.13574 13.7871L1.8457 13.3906C1.58134 13.0202 1.25 12.6014 1.25 12C1.25 11.3974 1.58166 10.9794 1.8457 10.6094L2.13574 10.2129C2.8735 9.23009 4.02655 7.87913 5.52051 6.71289C7.2262 5.38138 9.42959 4.25 12 4.25C14.571 4.25 16.7749 5.38123 18.4805 6.71289C20.1874 8.04564 21.4485 9.61998 22.1543 10.6094L22.3594 10.8984C22.564 11.2006 22.75 11.549 22.75 12Z" fill="black"/>
<path d="M14.25 12C14.25 11.4033 14.0128 10.8311 13.5908 10.4092C13.1689 9.98722 12.5967 9.75 12 9.75C11.4033 9.75 10.8311 9.98722 10.4092 10.4092C9.98722 10.8311 9.75 11.4033 9.75 12C9.75 12.5967 9.98722 13.1689 10.4092 13.5908C10.8311 14.0128 11.4033 14.25 12 14.25C12.5967 14.25 13.1689 14.0128 13.5908 13.5908C14.0128 13.1689 14.25 12.5967 14.25 12ZM15.75 12C15.75 12.9946 15.3546 13.9481 14.6514 14.6514C13.9481 15.3546 12.9946 15.75 12 15.75C11.0054 15.75 10.0519 15.3546 9.34863 14.6514C8.64537 13.9481 8.25 12.9946 8.25 12C8.25 11.0054 8.64537 10.0519 9.34863 9.34863C10.0519 8.64537 11.0054 8.25 12 8.25C12.9946 8.25 13.9481 8.64537 14.6514 9.34863C15.3546 10.0519 15.75 11.0054 15.75 12Z" fill="black"/>
</svg>
