<svg width="24" height="24" viewBox="0 0 24 24" fill="none" xmlns="http://www.w3.org/2000/svg">
<path fill-rule="evenodd" clip-rule="evenodd" d="M11.9998 22C13.8062 22.0002 15.5789 21.5109 17.1296 20.5843C18.6803 19.6577 19.951 18.3283 20.8068 16.7374C21.6625 15.1464 22.0713 13.3533 21.9898 11.5486C21.9083 9.74396 21.3394 7.99507 20.3437 6.48778L12.3943 15.3211C12.0229 15.7338 11.5106 15.9925 10.9581 16.0464C10.4056 16.1003 9.85295 15.9454 9.40892 15.6122L5.77806 12.8889C5.54233 12.7121 5.38648 12.4489 5.34481 12.1571C5.30314 11.8654 5.37905 11.5691 5.55585 11.3333C5.73265 11.0976 5.99585 10.9417 6.28756 10.9001C6.57926 10.8584 6.87557 10.9343 7.1113 11.1111L10.7422 13.8344L18.9038 4.76667C17.7214 3.6379 16.2804 2.81622 14.7069 2.37358C13.1333 1.93094 11.4753 1.88083 9.87791 2.22764C8.28053 2.57445 6.79251 3.3076 5.54415 4.3629C4.2958 5.41821 3.32517 6.76348 2.71725 8.28093C2.10933 9.79839 1.88267 11.4417 2.0571 13.0671C2.23153 14.6925 2.80174 16.2503 3.7178 17.6042C4.63387 18.9581 5.86785 20.0667 7.3117 20.8331C8.75555 21.5994 10.3652 22.0001 11.9998 22Z" fill="black"/>
</svg>
