<svg width="24" height="24" viewBox="0 0 24 24" fill="none" xmlns="http://www.w3.org/2000/svg">
<path d="M17.0629 8.64175C18.5951 9.74616 20.4722 10.396 22.4994 10.396V6.46247C22.1157 6.46262 21.7331 6.42223 21.3577 6.34197V9.43822C19.3306 9.43822 17.4538 8.78848 15.9213 7.68415V15.7114C15.9213 19.7271 12.6929 22.9822 8.71077 22.9822C7.22494 22.9822 5.84386 22.5292 4.69666 21.7524C6.00604 23.1024 7.83205 23.9398 9.85216 23.9398C13.8346 23.9398 17.0631 20.6848 17.0631 16.6689V8.64175H17.0629ZM18.4714 4.67331C17.6884 3.81071 17.1742 2.69596 17.0629 1.46351V0.957611H15.981C16.2534 2.52398 17.1824 3.86219 18.4714 4.67331ZM7.21534 18.6709C6.77782 18.0926 6.54133 17.385 6.54244 16.6574C6.54244 14.8208 8.01908 13.3317 9.84092 13.3317C10.1804 13.3315 10.5178 13.3841 10.8415 13.4875V9.46602C10.4633 9.4138 10.0817 9.39154 9.70023 9.39974V12.5298C9.37647 12.4263 9.03883 12.3738 8.69921 12.3741C6.87746 12.3741 5.40089 13.8631 5.40089 15.6999C5.40089 16.9987 6.13893 18.1232 7.21534 18.6709Z" fill="#FF004F"/>
<path d="M15.9213 7.68407C17.4539 8.7884 19.3305 9.43814 21.3577 9.43814V6.34189C20.2261 6.09882 19.2245 5.50263 18.4713 4.67331C17.1822 3.86211 16.2534 2.5239 15.981 0.957611H13.1392V16.6688C13.1327 18.5004 11.6586 19.9834 9.84075 19.9834C8.76958 19.9834 7.81786 19.4686 7.21517 18.6709C6.13892 18.1232 5.4008 16.9986 5.4008 15.7C5.4008 13.8633 6.87737 12.3742 8.69912 12.3742C9.04816 12.3742 9.38457 12.4289 9.70014 12.5299V9.39982C5.78791 9.48134 2.6416 12.7046 2.6416 16.6688C2.6416 18.6478 3.42508 20.4417 4.69673 21.7525C5.84394 22.5292 7.22493 22.9823 8.71085 22.9823C12.6931 22.9823 15.9214 19.727 15.9214 15.7114L15.9213 7.68407Z" fill="black"/>
<path d="M21.3577 6.34179V5.50477C20.3373 5.50627 19.3371 5.21813 18.4714 4.6733C19.2377 5.51927 20.2468 6.10265 21.3577 6.34196M15.981 0.957517C15.955 0.807854 15.9351 0.657193 15.9213 0.505903V0H11.9974V15.7113C11.9911 17.5428 10.517 19.0258 8.69906 19.0258C8.18368 19.0266 7.67534 18.905 7.21512 18.671C7.8178 19.4686 8.76953 19.9833 9.84069 19.9833C11.6585 19.9833 13.1328 18.5004 13.1392 16.6688V0.9576L15.981 0.957517ZM9.70034 9.39972V8.5085C9.37245 8.46333 9.04189 8.44072 8.71096 8.4408C4.72834 8.4408 1.5 11.696 1.5 15.7113C1.5 18.2287 2.76878 20.4473 4.69684 21.7524C3.42519 20.4416 2.64171 18.6476 2.64171 16.6687C2.64171 12.7046 5.78794 9.48124 9.70034 9.39972Z" fill="#00F2EA"/>
</svg>
