<svg width="104" height="40" viewBox="0 0 104 40" fill="none" xmlns="http://www.w3.org/2000/svg">
<g clip-path="url(#clip0_311_5145)">
<path d="M18.5501 36.9978L16.0344 33.6415C13.6777 30.9784 10.7108 28.725 7.42251 27.3307C6.75673 27.0482 6.02737 26.8901 5.39337 26.5342V8.38855C10.3249 9.79429 14.6207 12.7762 17.351 17.1373C17.5143 17.3987 18.5501 19.17 18.5501 19.2936V36.9978Z" fill="#0D0F17"/>
<path d="M33.3845 8.56506V26.6666C29.0207 27.9858 24.8856 31.003 22.0848 34.5721C21.4649 35.3615 20.9757 36.2604 20.3161 36.9977V19.3818C20.3161 18.4229 23.5135 14.4326 24.3205 13.6291C26.7232 11.2344 30.0344 9.20966 33.3845 8.56506Z" fill="#0D0F17"/>
<path d="M20.4927 40C20.4194 39.9294 21.3651 38.5536 21.4799 38.3832C23.5311 35.3316 25.6812 32.7143 28.8 30.6923C30.7373 29.4358 32.943 28.4132 35.2265 27.9797L35.2379 7.72715C35.2432 7.57792 35.3315 7.54967 35.4384 7.48609C35.6556 7.35805 37.7201 6.69757 37.9293 6.70552C38.4688 6.72671 38.8653 7.39249 38.8618 7.89933V31.2185C38.8503 31.5241 38.649 31.9867 38.4132 32.1819L20.4918 39.9991L20.4927 40Z" fill="#7239EA"/>
<path d="M18.3726 40L0.454725 32.0909C0.154505 31.8825 0.00174517 31.5859 0.00351117 31.2176V7.81102C-0.04682 7.32978 0.462672 6.74612 0.934196 6.74965C1.18409 6.75142 3.17879 7.49667 3.42691 7.66091C3.52669 7.72713 3.62294 7.75274 3.62735 7.90197L3.6662 27.9073C9.38099 29.3642 13.8649 33.1488 17.1205 37.9408C17.4728 38.4591 17.9841 39.1735 18.2666 39.7086C18.3187 39.8066 18.4053 39.864 18.3726 39.9991V40Z" fill="#7239EA"/>
<path d="M5.56997 0C9.70596 1.19382 13.3784 3.75894 15.7077 7.38985C17.1585 9.6521 18.4627 12.9669 18.5528 15.6715C18.5563 15.7731 18.5704 15.8649 18.4609 15.7625C18.0503 15.3757 17.3731 14.2225 16.9174 13.6848C14.6384 10.9951 11.653 8.84857 8.35231 7.59205C7.43929 7.24415 6.46181 7.01545 5.56909 6.66667V0H5.56997Z" fill="#0D0F17"/>
<path d="M33.2079 0.088242L33.2962 6.71076C33.1735 6.71429 33.0437 6.70016 32.9227 6.73283C27.698 8.12886 23.3386 11.3536 20.317 15.8066C20.6755 9.14078 25.0984 3.42422 31.1178 0.780516C31.403 0.655129 33.0649 -0.0521553 33.2079 0.089125V0.088242Z" fill="#0D0F17"/>
</g>
<path d="M68.284 18.0909H63.4772C63.4431 17.6932 63.3522 17.3324 63.2045 17.0085C63.0625 16.6847 62.8636 16.4062 62.6079 16.1733C62.3579 15.9347 62.0539 15.7528 61.696 15.6278C61.338 15.4972 60.9318 15.4318 60.4772 15.4318C59.6818 15.4318 59.0085 15.625 58.4573 16.0114C57.9119 16.3977 57.4971 16.9517 57.213 17.6733C56.9346 18.3949 56.7954 19.2614 56.7954 20.2727C56.7954 21.3409 56.9375 22.2358 57.2215 22.9574C57.5113 23.6733 57.9289 24.2131 58.4744 24.5767C59.0198 24.9347 59.6761 25.1136 60.4431 25.1136C60.8806 25.1136 61.2727 25.0597 61.6193 24.9517C61.9659 24.8381 62.267 24.6761 62.5227 24.4659C62.7784 24.2557 62.9857 24.0028 63.1448 23.7074C63.3096 23.4062 63.4204 23.0682 63.4772 22.6932L68.284 22.7273C68.2272 23.4659 68.0198 24.2187 67.6619 24.9858C67.3039 25.7472 66.7954 26.4517 66.1363 27.0994C65.4829 27.7415 64.6732 28.2585 63.7073 28.6506C62.7414 29.0426 61.6193 29.2386 60.3409 29.2386C58.7386 29.2386 57.3011 28.8949 56.0284 28.2074C54.7613 27.5199 53.7585 26.5085 53.0198 25.1733C52.2869 23.8381 51.9204 22.2045 51.9204 20.2727C51.9204 18.3295 52.2954 16.6932 53.0454 15.3636C53.7954 14.0284 54.8068 13.0199 56.0795 12.3381C57.3522 11.6506 58.7727 11.3068 60.3409 11.3068C61.4431 11.3068 62.4573 11.4574 63.3835 11.7585C64.3096 12.0597 65.1221 12.5 65.821 13.0795C66.5198 13.6534 67.0823 14.3608 67.5085 15.2017C67.9346 16.0426 68.1931 17.0057 68.284 18.0909ZM87.343 20.2727C87.343 22.2159 86.9651 23.8551 86.2095 25.1903C85.4538 26.5199 84.4339 27.5284 83.1498 28.2159C81.8657 28.8977 80.4339 29.2386 78.8544 29.2386C77.2634 29.2386 75.8259 28.8949 74.5419 28.2074C73.2634 27.5142 72.2464 26.5028 71.4907 25.1733C70.7407 23.8381 70.3657 22.2045 70.3657 20.2727C70.3657 18.3295 70.7407 16.6932 71.4907 15.3636C72.2464 14.0284 73.2634 13.0199 74.5419 12.3381C75.8259 11.6506 77.2634 11.3068 78.8544 11.3068C80.4339 11.3068 81.8657 11.6506 83.1498 12.3381C84.4339 13.0199 85.4538 14.0284 86.2095 15.3636C86.9651 16.6932 87.343 18.3295 87.343 20.2727ZM82.468 20.2727C82.468 19.2273 82.3288 18.3466 82.0504 17.6307C81.7776 16.9091 81.3714 16.3636 80.8316 15.9943C80.2975 15.6193 79.6384 15.4318 78.8544 15.4318C78.0703 15.4318 77.4083 15.6193 76.8686 15.9943C76.3345 16.3636 75.9282 16.9091 75.6498 17.6307C75.3771 18.3466 75.2407 19.2273 75.2407 20.2727C75.2407 21.3182 75.3771 22.2017 75.6498 22.9233C75.9282 23.6392 76.3345 24.1847 76.8686 24.5597C77.4083 24.929 78.0703 25.1136 78.8544 25.1136C79.6384 25.1136 80.2975 24.929 80.8316 24.5597C81.3714 24.1847 81.7776 23.6392 82.0504 22.9233C82.3288 22.2017 82.468 21.3182 82.468 20.2727ZM90.2173 29V27.4659L95.9786 21.1591C96.6548 20.4205 97.2116 19.7784 97.6491 19.233C98.0866 18.6818 98.4105 18.1648 98.6207 17.6818C98.8366 17.1932 98.9446 16.6818 98.9446 16.1477C98.9446 15.5341 98.7968 15.0028 98.5014 14.554C98.2116 14.1051 97.8139 13.7585 97.3082 13.5142C96.8025 13.2699 96.2343 13.1477 95.6036 13.1477C94.9332 13.1477 94.348 13.2869 93.848 13.5653C93.3536 13.8381 92.9701 14.2216 92.6974 14.7159C92.4303 15.2102 92.2968 15.7898 92.2968 16.4545H90.2855C90.2855 15.4318 90.5213 14.5341 90.9928 13.7614C91.4644 12.9886 92.1065 12.3864 92.919 11.9545C93.7372 11.5227 94.6548 11.3068 95.6718 11.3068C96.6946 11.3068 97.6008 11.5227 98.3906 11.9545C99.1803 12.3864 99.7997 12.9687 100.249 13.7017C100.697 14.4347 100.922 15.25 100.922 16.1477C100.922 16.7898 100.805 17.4176 100.572 18.0312C100.345 18.6392 99.9474 19.3182 99.3792 20.0682C98.8167 20.8125 98.0355 21.7216 97.0355 22.7955L93.115 26.9886V27.125H101.229V29H90.2173Z" fill="#0D0F17"/>
<defs>
<clipPath id="clip0_311_5145">
<rect width="38.8636" height="40" fill="white"/>
</clipPath>
</defs>
</svg>
