<svg width="116" height="40" viewBox="0 0 116 40" fill="none" xmlns="http://www.w3.org/2000/svg">
<g clip-path="url(#clip0_298_227)">
<path d="M18.55 36.9979L16.0344 33.6417C13.6776 30.9785 10.7107 28.7251 7.42245 27.3308C6.75667 27.0483 6.02731 26.8902 5.39331 26.5344V8.38867C10.3249 9.79441 14.6207 12.7763 17.3509 17.1375C17.5143 17.3988 18.55 19.1701 18.55 19.2937V36.9979Z" fill="white"/>
<path d="M33.3845 8.56494V26.6665C29.0207 27.9857 24.8856 31.0029 22.0847 34.572C21.4648 35.3614 20.9756 36.2603 20.316 36.9976V19.3817C20.316 18.4228 23.5134 14.4325 24.3205 13.629C26.7231 11.2343 30.0344 9.20953 33.3845 8.56494Z" fill="white"/>
<path d="M20.4927 40.0001C20.4194 39.9295 21.3651 38.5538 21.4799 38.3833C23.5311 35.3317 25.6812 32.7145 28.8 30.6924C30.7373 29.4359 32.943 28.4134 35.2265 27.9798L35.2379 7.72727C35.2432 7.57804 35.3315 7.54979 35.4384 7.48621C35.6556 7.35818 37.7201 6.69769 37.9293 6.70564C38.4688 6.72683 38.8653 7.39261 38.8618 7.89946V31.2187C38.8503 31.5242 38.649 31.9869 38.4132 32.182L20.4918 39.9992L20.4927 40.0001Z" fill="#7239EA"/>
<path d="M18.3725 39.9999L0.454664 32.0908C0.154443 31.8824 0.00168413 31.5857 0.00345014 31.2175V7.8109C-0.046881 7.32966 0.462611 6.746 0.934134 6.74953C1.18402 6.75129 3.17873 7.49655 3.42685 7.66079C3.52663 7.72701 3.62288 7.75262 3.62729 7.90185L3.66614 27.9071C9.38093 29.3641 13.8648 33.1486 17.1204 37.9407C17.4728 38.459 17.984 39.1734 18.2666 39.7085C18.3187 39.8065 18.4052 39.8639 18.3725 39.999V39.9999Z" fill="#7239EA"/>
<path d="M5.56997 0C9.70596 1.19382 13.3784 3.75894 15.7077 7.38985C17.1585 9.6521 18.4627 12.9669 18.5528 15.6715C18.5563 15.7731 18.5704 15.8649 18.4609 15.7625C18.0503 15.3757 17.3731 14.2225 16.9174 13.6848C14.6384 10.9951 11.653 8.84857 8.35231 7.59205C7.43929 7.24415 6.46181 7.01545 5.56909 6.66667V0H5.56997Z" fill="white"/>
<path d="M33.208 0.0884862L33.2963 6.711C33.1735 6.71453 33.0437 6.70041 32.9228 6.73308C27.698 8.1291 23.3387 11.3538 20.317 15.8068C20.6755 9.14102 25.0985 3.42447 31.1179 0.78076C31.4031 0.655374 33.0649 -0.0519112 33.208 0.0893692V0.0884862Z" fill="white"/>
</g>
<path d="M80.284 18.0909H75.4772C75.4431 17.6932 75.3522 17.3324 75.2044 17.0085C75.0624 16.6847 74.8635 16.4062 74.6078 16.1733C74.3578 15.9347 74.0539 15.7528 73.6959 15.6278C73.338 15.4972 72.9317 15.4318 72.4772 15.4318C71.6817 15.4318 71.0084 15.625 70.4573 16.0114C69.9118 16.3977 69.497 16.9517 69.213 17.6733C68.9345 18.3949 68.7953 19.2614 68.7953 20.2727C68.7953 21.3409 68.9374 22.2358 69.2215 22.9574C69.5113 23.6733 69.9289 24.2131 70.4743 24.5767C71.0198 24.9347 71.676 25.1136 72.4431 25.1136C72.8806 25.1136 73.2726 25.0597 73.6192 24.9517C73.9658 24.8381 74.2669 24.6761 74.5226 24.4659C74.7783 24.2557 74.9857 24.0028 75.1448 23.7074C75.3095 23.4062 75.4203 23.0682 75.4772 22.6932L80.284 22.7273C80.2272 23.4659 80.0198 24.2187 79.6618 24.9858C79.3039 25.7472 78.7953 26.4517 78.1363 27.0994C77.4828 27.7415 76.6732 28.2585 75.7073 28.6506C74.7414 29.0426 73.6192 29.2386 72.3408 29.2386C70.7385 29.2386 69.301 28.8949 68.0283 28.2074C66.7613 27.5199 65.7584 26.5085 65.0198 25.1733C64.2868 23.8381 63.9203 22.2045 63.9203 20.2727C63.9203 18.3295 64.2953 16.6932 65.0453 15.3636C65.7953 14.0284 66.8067 13.0199 68.0794 12.3381C69.3522 11.6506 70.7726 11.3068 72.3408 11.3068C73.4431 11.3068 74.4573 11.4574 75.3834 11.7585C76.3095 12.0597 77.122 12.5 77.8209 13.0795C78.5198 13.6534 79.0823 14.3608 79.5084 15.2017C79.9345 16.0426 80.1931 17.0057 80.284 18.0909ZM99.3429 20.2727C99.3429 22.2159 98.9651 23.8551 98.2094 25.1903C97.4537 26.5199 96.4338 27.5284 95.1497 28.2159C93.8657 28.8977 92.4338 29.2386 90.8543 29.2386C89.2634 29.2386 87.8259 28.8949 86.5418 28.2074C85.2634 27.5142 84.2463 26.5028 83.4907 25.1733C82.7407 23.8381 82.3657 22.2045 82.3657 20.2727C82.3657 18.3295 82.7407 16.6932 83.4907 15.3636C84.2463 14.0284 85.2634 13.0199 86.5418 12.3381C87.8259 11.6506 89.2634 11.3068 90.8543 11.3068C92.4338 11.3068 93.8657 11.6506 95.1497 12.3381C96.4338 13.0199 97.4537 14.0284 98.2094 15.3636C98.9651 16.6932 99.3429 18.3295 99.3429 20.2727ZM94.4679 20.2727C94.4679 19.2273 94.3287 18.3466 94.0503 17.6307C93.7776 16.9091 93.3713 16.3636 92.8316 15.9943C92.2975 15.6193 91.6384 15.4318 90.8543 15.4318C90.0702 15.4318 89.4083 15.6193 88.8685 15.9943C88.3344 16.3636 87.9282 16.9091 87.6497 17.6307C87.377 18.3466 87.2407 19.2273 87.2407 20.2727C87.2407 21.3182 87.377 22.2017 87.6497 22.9233C87.9282 23.6392 88.3344 24.1847 88.8685 24.5597C89.4083 24.929 90.0702 25.1136 90.8543 25.1136C91.6384 25.1136 92.2975 24.929 92.8316 24.5597C93.3713 24.1847 93.7776 23.6392 94.0503 22.9233C94.3287 22.2017 94.4679 21.3182 94.4679 20.2727ZM102.217 29V27.4659L107.979 21.1591C108.655 20.4205 109.212 19.7784 109.649 19.233C110.087 18.6818 110.41 18.1648 110.621 17.6818C110.837 17.1932 110.944 16.6818 110.944 16.1477C110.944 15.5341 110.797 15.0028 110.501 14.554C110.212 14.1051 109.814 13.7585 109.308 13.5142C108.802 13.2699 108.234 13.1477 107.604 13.1477C106.933 13.1477 106.348 13.2869 105.848 13.5653C105.354 13.8381 104.97 14.2216 104.697 14.7159C104.43 15.2102 104.297 15.7898 104.297 16.4545H102.285C102.285 15.4318 102.521 14.5341 102.993 13.7614C103.464 12.9886 104.106 12.3864 104.919 11.9545C105.737 11.5227 106.655 11.3068 107.672 11.3068C108.694 11.3068 109.601 11.5227 110.391 11.9545C111.18 12.3864 111.8 12.9687 112.248 13.7017C112.697 14.4347 112.922 15.25 112.922 16.1477C112.922 16.7898 112.805 17.4176 112.572 18.0312C112.345 18.6392 111.947 19.3182 111.379 20.0682C110.817 20.8125 110.035 21.7216 109.035 22.7955L105.115 26.9886V27.125H113.229V29H102.217Z" fill="white"/>
<defs>
<clipPath id="clip0_298_227">
<rect width="38.8636" height="40" fill="white"/>
</clipPath>
</defs>
</svg>
