<svg width="32" height="32" viewBox="0 0 32 32" fill="none" xmlns="http://www.w3.org/2000/svg">
<path opacity="0.3" fill-rule="evenodd" clip-rule="evenodd" d="M16.9999 0.333313C16.6463 0.333313 16.3072 0.473789 16.0571 0.723837C15.8071 0.973886 15.6666 1.31302 15.6666 1.66665V3.66665C15.6666 4.02027 15.8071 4.35941 16.0571 4.60946C16.3072 4.8595 16.6463 4.99998 16.9999 4.99998C17.3536 4.99998 17.6927 4.8595 17.9427 4.60946C18.1928 4.35941 18.3333 4.02027 18.3333 3.66665V1.66665C18.3333 1.31302 18.1928 0.973886 17.9427 0.723837C17.6927 0.473789 17.3536 0.333313 16.9999 0.333313ZM5.66661 14.3333C5.31298 14.3333 4.97385 14.1928 4.7238 13.9428C4.47375 13.6927 4.33327 13.3536 4.33327 13C4.33327 12.6464 4.47375 12.3072 4.7238 12.0572C4.97385 11.8071 5.31298 11.6666 5.66661 11.6666H7.66661C8.02023 11.6666 8.35937 11.8071 8.60941 12.0572C8.85946 12.3072 8.99994 12.6464 8.99994 13C8.99994 13.3536 8.85946 13.6927 8.60941 13.9428C8.35937 14.1928 8.02023 14.3333 7.66661 14.3333H5.66661ZM28.3333 14.3333C28.6869 14.3333 29.026 14.1928 29.2761 13.9428C29.5261 13.6927 29.6666 13.3536 29.6666 13C29.6666 12.6464 29.5261 12.3072 29.2761 12.0572C29.026 11.8071 28.6869 11.6666 28.3333 11.6666H26.3333C25.9796 11.6666 25.6405 11.8071 25.3905 12.0572C25.1404 12.3072 24.9999 12.6464 24.9999 13C24.9999 13.3536 25.1404 13.6927 25.3905 13.9428C25.6405 14.1928 25.9796 14.3333 26.3333 14.3333H28.3333ZM8.04261 5.92998C7.79259 5.67988 7.65218 5.34071 7.65224 4.98708C7.6523 4.63345 7.79284 4.29432 8.04294 4.04431C8.29304 3.7943 8.63221 3.65388 8.98584 3.65395C9.33947 3.65401 9.67859 3.79455 9.9286 4.04465L11.3426 5.45798C11.4665 5.58177 11.5648 5.72875 11.6318 5.89053C11.6989 6.05231 11.7335 6.22571 11.7335 6.40084C11.7336 6.57597 11.6992 6.7494 11.6322 6.91123C11.5652 7.07305 11.4671 7.2201 11.3433 7.34398C11.2195 7.46786 11.0725 7.56614 10.9107 7.63322C10.7489 7.7003 10.5755 7.73486 10.4004 7.73492C10.2253 7.73498 10.0519 7.70055 9.89003 7.63358C9.7282 7.56662 9.58115 7.46844 9.45727 7.34465L8.04261 5.92998ZM25.9559 4.04465C26.2059 4.29468 26.3463 4.63376 26.3463 4.98731C26.3463 5.34087 26.2059 5.67994 25.9559 5.92998L24.5413 7.34398C24.4183 7.47133 24.2711 7.5729 24.1085 7.64278C23.9458 7.71266 23.7708 7.74944 23.5938 7.75098C23.4168 7.75252 23.2412 7.71878 23.0773 7.65174C22.9135 7.5847 22.7646 7.4857 22.6394 7.36051C22.5142 7.23532 22.4152 7.08645 22.3482 6.92259C22.2811 6.75872 22.2474 6.58315 22.2489 6.40611C22.2505 6.22907 22.2873 6.05411 22.3571 5.89144C22.427 5.72877 22.5286 5.58164 22.6559 5.45865L24.0699 4.04465C24.1938 3.92078 24.3408 3.82252 24.5026 3.75548C24.6644 3.68844 24.8378 3.65393 25.0129 3.65393C25.1881 3.65393 25.3615 3.68844 25.5233 3.75548C25.6851 3.82252 25.8321 3.92078 25.9559 4.04465ZM20.5726 23.98C20.6028 24.0506 20.6324 24.1213 20.6613 24.192C19.3013 24.6086 17.9479 25.008 16.6399 25.3826L16.8246 26.0706C17.1262 27.1963 16.9684 28.3957 16.3857 29.405C15.803 30.4142 14.8433 31.1507 13.7176 31.4523C12.5919 31.754 11.3925 31.5961 10.3833 31.0134C9.37403 30.4307 8.63758 29.471 8.33594 28.3453L8.15861 27.684C7.50527 27.8506 6.94527 27.9926 6.49861 28.104C5.39927 28.3786 4.20194 28.008 3.49661 27.0493C3.24327 26.704 2.95994 26.296 2.73194 25.9C2.50517 25.4992 2.30042 25.0864 2.11861 24.6633C1.64127 23.5733 1.91861 22.3506 2.70661 21.536C4.44661 19.736 8.63461 15.4586 13.1759 11.2266L13.3139 11.4066C13.5373 11.7013 13.8619 12.1386 14.2599 12.7026C15.3472 14.2497 16.3647 15.8446 17.3093 17.4826C18.2555 19.1197 19.1279 20.7982 19.9239 22.5133C20.2139 23.14 20.4299 23.64 20.5726 23.98ZM10.7393 27.0106L10.9119 27.6546C10.9706 27.8737 11.0718 28.0791 11.2099 28.2591C11.3479 28.4391 11.52 28.5901 11.7164 28.7035C11.9128 28.817 12.1296 28.8906 12.3545 28.9203C12.5794 28.9499 12.8079 28.935 13.0269 28.8763C13.246 28.8177 13.4514 28.7164 13.6314 28.5784C13.8113 28.4404 13.9624 28.2682 14.0758 28.0718C14.1892 27.8754 14.2629 27.6586 14.2925 27.4338C14.3222 27.2089 14.3073 26.9804 14.2486 26.7613L14.0733 26.1066C12.8819 26.4366 11.7586 26.74 10.7393 27.0106Z" fill="#3699FF"/>
<path fill-rule="evenodd" clip-rule="evenodd" d="M16.6993 6.69331C16.8951 6.5144 17.1538 6.42057 17.4188 6.43244C17.6837 6.44432 17.933 6.56094 18.112 6.75665L18.114 6.75865L18.116 6.76131L18.1226 6.76798L18.1426 6.79065L18.2093 6.86865C18.2671 6.93531 18.3489 7.03465 18.4546 7.16665C18.6673 7.43331 18.978 7.83865 19.3866 8.41598C20.2033 9.56931 21.4146 11.41 23.0173 14.1866C24.6206 16.9626 25.6086 18.9313 26.1993 20.2166C26.4182 20.6878 26.6236 21.1651 26.8153 21.648C26.8749 21.7995 26.9313 21.9522 26.9846 22.106L26.994 22.1346L26.9973 22.144L26.9986 22.1486C27.0755 22.399 27.0511 22.6709 26.9306 22.9035C26.8102 23.136 26.6033 23.3121 26.3544 23.3937C26.1056 23.4753 25.8346 23.4561 25.5998 23.3401C25.365 23.2241 25.185 23.0206 25.0986 22.7733C24.2686 23.052 23.4253 23.3266 22.5773 23.5953C22.312 22.9491 22.0326 22.3087 21.7393 21.6746C20.918 19.9043 20.0178 18.1717 19.0413 16.482C18.0666 14.7916 17.0167 13.1457 15.8946 11.5493C15.4925 10.979 15.0779 10.4175 14.6513 9.86531C15.308 9.26531 15.9673 8.67198 16.624 8.09265C16.4507 7.89606 16.3614 7.63928 16.3755 7.37758C16.3896 7.11587 16.5059 6.87016 16.6993 6.69331Z" fill="#3699FF"/>
<path fill-rule="evenodd" clip-rule="evenodd" d="M16.9999 0.333313C16.6463 0.333313 16.3072 0.473789 16.0571 0.723837C15.8071 0.973886 15.6666 1.31302 15.6666 1.66665V3.66665C15.6666 4.02027 15.8071 4.35941 16.0571 4.60946C16.3072 4.8595 16.6463 4.99998 16.9999 4.99998C17.3535 4.99998 17.6927 4.8595 17.9427 4.60946C18.1928 4.35941 18.3333 4.02027 18.3333 3.66665V1.66665C18.3333 1.31302 18.1928 0.973886 17.9427 0.723837C17.6927 0.473789 17.3535 0.333313 16.9999 0.333313ZM5.66659 14.3333C5.31296 14.3333 4.97382 14.1928 4.72378 13.9428C4.47373 13.6927 4.33325 13.3536 4.33325 13C4.33325 12.6464 4.47373 12.3072 4.72378 12.0572C4.97382 11.8071 5.31296 11.6666 5.66659 11.6666H7.66659C8.02021 11.6666 8.35935 11.8071 8.60939 12.0572C8.85944 12.3072 8.99992 12.6464 8.99992 13C8.99992 13.3536 8.85944 13.6927 8.60939 13.9428C8.35935 14.1928 8.02021 14.3333 7.66659 14.3333H5.66659ZM28.3333 14.3333C28.6869 14.3333 29.026 14.1928 29.2761 13.9428C29.5261 13.6927 29.6666 13.3536 29.6666 13C29.6666 12.6464 29.5261 12.3072 29.2761 12.0572C29.026 11.8071 28.6869 11.6666 28.3333 11.6666H26.3333C25.9796 11.6666 25.6405 11.8071 25.3904 12.0572C25.1404 12.3072 24.9999 12.6464 24.9999 13C24.9999 13.3536 25.1404 13.6927 25.3904 13.9428C25.6405 14.1928 25.9796 14.3333 26.3333 14.3333H28.3333ZM8.04259 5.92998C7.79257 5.67988 7.65216 5.34071 7.65222 4.98708C7.65228 4.63345 7.79282 4.29432 8.04292 4.04431C8.29302 3.7943 8.63219 3.65388 8.98582 3.65395C9.33945 3.65401 9.67857 3.79455 9.92859 4.04465L11.3426 5.45798C11.4665 5.58177 11.5648 5.72875 11.6318 5.89053C11.6989 6.05231 11.7335 6.22571 11.7335 6.40084C11.7336 6.57597 11.6992 6.7494 11.6322 6.91123C11.5652 7.07305 11.467 7.2201 11.3433 7.34398C11.2195 7.46786 11.0725 7.56614 10.9107 7.63322C10.7489 7.7003 10.5755 7.73486 10.4004 7.73492C10.2253 7.73498 10.0518 7.70055 9.89001 7.63358C9.72818 7.56662 9.58113 7.46844 9.45725 7.34465L8.04259 5.92998ZM25.9559 4.04465C26.2059 4.29468 26.3463 4.63376 26.3463 4.98731C26.3463 5.34087 26.2059 5.67994 25.9559 5.92998L24.5413 7.34398C24.4183 7.47133 24.2711 7.5729 24.1085 7.64278C23.9458 7.71266 23.7708 7.74944 23.5938 7.75098C23.4167 7.75252 23.2412 7.71878 23.0773 7.65174C22.9135 7.5847 22.7646 7.4857 22.6394 7.36051C22.5142 7.23532 22.4152 7.08645 22.3482 6.92259C22.2811 6.75872 22.2474 6.58315 22.2489 6.40611C22.2505 6.22907 22.2872 6.05411 22.3571 5.89144C22.427 5.72877 22.5286 5.58164 22.6559 5.45865L24.0699 4.04465C24.1937 3.92078 24.3407 3.82252 24.5025 3.75548C24.6644 3.68844 24.8378 3.65393 25.0129 3.65393C25.1881 3.65393 25.3615 3.68844 25.5233 3.75548C25.6851 3.82252 25.8321 3.92078 25.9559 4.04465Z" fill="#3699FF"/>
</svg>
