<svg width="20" height="20" viewBox="0 0 20 20" fill="none" xmlns="http://www.w3.org/2000/svg">
<path opacity="0.3" fill-rule="evenodd" clip-rule="evenodd" d="M10.6248 0.208328C10.4038 0.208328 10.1919 0.296126 10.0356 0.452406C9.8793 0.608686 9.79151 0.820648 9.79151 1.04166V2.29166C9.79151 2.51268 9.8793 2.72464 10.0356 2.88092C10.1919 3.0372 10.4038 3.12499 10.6248 3.12499C10.8459 3.12499 11.0578 3.0372 11.2141 2.88092C11.3704 2.72464 11.4582 2.51268 11.4582 2.29166V1.04166C11.4582 0.820648 11.3704 0.608686 11.2141 0.452406C11.0578 0.296126 10.8459 0.208328 10.6248 0.208328ZM3.54151 8.95833C3.32049 8.95833 3.10853 8.87053 2.95225 8.71425C2.79597 8.55797 2.70817 8.34601 2.70817 8.12499C2.70817 7.90398 2.79597 7.69202 2.95225 7.53574C3.10853 7.37946 3.32049 7.29166 3.54151 7.29166H4.79151C5.01252 7.29166 5.22448 7.37946 5.38076 7.53574C5.53704 7.69202 5.62484 7.90398 5.62484 8.12499C5.62484 8.34601 5.53704 8.55797 5.38076 8.71425C5.22448 8.87053 5.01252 8.95833 4.79151 8.95833H3.54151ZM17.7082 8.95833C17.9292 8.95833 18.1411 8.87053 18.2974 8.71425C18.4537 8.55797 18.5415 8.34601 18.5415 8.12499C18.5415 7.90398 18.4537 7.69202 18.2974 7.53574C18.1411 7.37946 17.9292 7.29166 17.7082 7.29166H16.4582C16.2372 7.29166 16.0252 7.37946 15.8689 7.53574C15.7126 7.69202 15.6248 7.90398 15.6248 8.12499C15.6248 8.34601 15.7126 8.55797 15.8689 8.71425C16.0252 8.87053 16.2372 8.95833 16.4582 8.95833H17.7082ZM5.02651 3.70625C4.87025 3.54993 4.78249 3.33795 4.78253 3.11693C4.78257 2.89591 4.8704 2.68396 5.02671 2.5277C5.18303 2.37145 5.39501 2.28368 5.61603 2.28372C5.83705 2.28376 6.049 2.3716 6.20526 2.52791L7.08901 3.41124C7.16643 3.48862 7.22786 3.58048 7.26978 3.68159C7.31171 3.7827 7.3333 3.89108 7.33334 4.00053C7.33338 4.10999 7.31186 4.21838 7.27001 4.31952C7.22816 4.42066 7.16679 4.51257 7.08942 4.58999C7.01205 4.66742 6.92019 4.72885 6.81908 4.77077C6.71797 4.81269 6.60959 4.83429 6.50013 4.83433C6.39068 4.83437 6.28228 4.81285 6.18114 4.771C6.08 4.72914 5.9881 4.66778 5.91067 4.59041L5.02651 3.70625ZM16.2223 2.52791C16.3786 2.68418 16.4663 2.89611 16.4663 3.11708C16.4663 3.33805 16.3786 3.54997 16.2223 3.70625L15.3382 4.58999C15.2613 4.66959 15.1693 4.73307 15.0677 4.77675C14.966 4.82042 14.8567 4.84341 14.746 4.84437C14.6354 4.84533 14.5256 4.82425 14.4232 4.78235C14.3208 4.74045 14.2278 4.67857 14.1495 4.60032C14.0713 4.52208 14.0094 4.42904 13.9675 4.32662C13.9256 4.22421 13.9045 4.11448 13.9055 4.00383C13.9064 3.89318 13.9294 3.78383 13.9731 3.68216C14.0168 3.58049 14.0802 3.48853 14.1598 3.41166L15.0436 2.52791C15.121 2.45049 15.2129 2.38908 15.314 2.34718C15.4151 2.30528 15.5235 2.28371 15.633 2.28371C15.7424 2.28371 15.8508 2.30528 15.9519 2.34718C16.0531 2.38908 16.145 2.45049 16.2223 2.52791ZM12.8578 14.9875C12.8766 15.0317 12.8951 15.0758 12.9132 15.12C12.0632 15.3804 11.2173 15.63 10.3998 15.8642L10.5153 16.2942C10.7038 16.9977 10.6051 17.7473 10.2409 18.3781C9.87676 19.0089 9.27692 19.4692 8.57338 19.6577C7.86984 19.8462 7.12022 19.7475 6.48943 19.3834C5.85865 19.0192 5.39836 18.4194 5.20984 17.7158L5.09901 17.3025C4.69067 17.4067 4.34067 17.4954 4.06151 17.565C3.37442 17.7367 2.62609 17.505 2.18526 16.9058C2.02692 16.69 1.84984 16.435 1.70734 16.1875C1.56561 15.937 1.43764 15.679 1.32401 15.4146C1.02567 14.7333 1.19901 13.9692 1.69151 13.46C2.77901 12.335 5.39651 9.66166 8.23484 7.01666L8.32109 7.12916C8.46067 7.31333 8.66359 7.58666 8.91234 7.93916C9.5919 8.90605 10.2278 9.90288 10.8182 10.9267C11.4096 11.9498 11.9548 12.9989 12.4523 14.0708C12.6336 14.4625 12.7686 14.775 12.8578 14.9875ZM6.71192 16.8817L6.81984 17.2842C6.8565 17.4211 6.91977 17.5495 7.00604 17.6619C7.09231 17.7744 7.19989 17.8688 7.32264 17.9397C7.44539 18.0106 7.5809 18.0566 7.72144 18.0752C7.86197 18.0937 8.00478 18.0844 8.14171 18.0477C8.27865 18.011 8.40701 17.9478 8.51949 17.8615C8.63197 17.7752 8.72635 17.6676 8.79725 17.5449C8.86816 17.4222 8.91419 17.2866 8.93272 17.1461C8.95125 17.0056 8.94192 16.8628 8.90526 16.7258L8.79567 16.3167C8.05109 16.5229 7.34901 16.7125 6.71192 16.8817Z" fill="white"/>
<path fill-rule="evenodd" clip-rule="evenodd" d="M10.437 4.18333C10.5594 4.07151 10.7211 4.01286 10.8867 4.02029C11.0523 4.02771 11.2081 4.10059 11.32 4.22291L11.3212 4.22416L11.3225 4.22583L11.3266 4.22999L11.3391 4.24416L11.3808 4.29291C11.4169 4.33458 11.468 4.39666 11.5341 4.47916C11.667 4.64583 11.8612 4.89916 12.1166 5.25999C12.627 5.98083 13.3841 7.13125 14.3858 8.86666C15.3879 10.6017 16.0054 11.8321 16.3745 12.6354C16.5113 12.9299 16.6397 13.2282 16.7595 13.53C16.7968 13.6247 16.832 13.7201 16.8654 13.8162L16.8712 13.8342L16.8733 13.84L16.8741 13.8429C16.9222 13.9994 16.9069 14.1693 16.8316 14.3147C16.7563 14.46 16.627 14.57 16.4715 14.6211C16.3159 14.6721 16.1466 14.6601 15.9998 14.5876C15.8531 14.5151 15.7406 14.3879 15.6866 14.2333C15.1679 14.4075 14.6408 14.5792 14.1108 14.7471C13.945 14.3432 13.7703 13.9429 13.587 13.5467C13.0737 12.4402 12.5111 11.3573 11.9008 10.3012C11.2916 9.24475 10.6354 8.21608 9.93412 7.21833C9.68278 6.86189 9.42369 6.51097 9.15704 6.16583C9.56746 5.79083 9.97954 5.41999 10.39 5.05791C10.2816 4.93504 10.2259 4.77456 10.2347 4.61099C10.2435 4.44743 10.3162 4.29386 10.437 4.18333Z" fill="white"/>
<path fill-rule="evenodd" clip-rule="evenodd" d="M10.6249 0.208328C10.4039 0.208328 10.1919 0.296126 10.0357 0.452406C9.87938 0.608686 9.79159 0.820648 9.79159 1.04166V2.29166C9.79159 2.51268 9.87938 2.72464 10.0357 2.88092C10.1919 3.0372 10.4039 3.12499 10.6249 3.12499C10.8459 3.12499 11.0579 3.0372 11.2142 2.88092C11.3705 2.72464 11.4583 2.51268 11.4583 2.29166V1.04166C11.4583 0.820648 11.3705 0.608686 11.2142 0.452406C11.0579 0.296126 10.8459 0.208328 10.6249 0.208328ZM3.54159 8.95833C3.32057 8.95833 3.10861 8.87053 2.95233 8.71425C2.79605 8.55797 2.70825 8.34601 2.70825 8.12499C2.70825 7.90398 2.79605 7.69202 2.95233 7.53574C3.10861 7.37946 3.32057 7.29166 3.54159 7.29166H4.79159C5.0126 7.29166 5.22456 7.37946 5.38084 7.53574C5.53712 7.69202 5.62492 7.90398 5.62492 8.12499C5.62492 8.34601 5.53712 8.55797 5.38084 8.71425C5.22456 8.87053 5.0126 8.95833 4.79159 8.95833H3.54159ZM17.7083 8.95833C17.9293 8.95833 18.1412 8.87053 18.2975 8.71425C18.4538 8.55797 18.5416 8.34601 18.5416 8.12499C18.5416 7.90398 18.4538 7.69202 18.2975 7.53574C18.1412 7.37946 17.9293 7.29166 17.7083 7.29166H16.4583C16.2372 7.29166 16.0253 7.37946 15.869 7.53574C15.7127 7.69202 15.6249 7.90398 15.6249 8.12499C15.6249 8.34601 15.7127 8.55797 15.869 8.71425C16.0253 8.87053 16.2372 8.95833 16.4583 8.95833H17.7083ZM5.02659 3.70625C4.87033 3.54993 4.78257 3.33795 4.78261 3.11693C4.78264 2.89591 4.87048 2.68396 5.02679 2.5277C5.18311 2.37145 5.39509 2.28368 5.61611 2.28372C5.83713 2.28376 6.04908 2.3716 6.20534 2.52791L7.08909 3.41124C7.16651 3.48862 7.22794 3.58048 7.26986 3.68159C7.31178 3.7827 7.33338 3.89108 7.33342 4.00053C7.33346 4.10999 7.31194 4.21838 7.27009 4.31952C7.22824 4.42066 7.16687 4.51257 7.0895 4.58999C7.01213 4.66742 6.92027 4.72885 6.81916 4.77077C6.71805 4.81269 6.60967 4.83429 6.50021 4.83433C6.39076 4.83437 6.28236 4.81285 6.18122 4.771C6.08008 4.72914 5.98818 4.66778 5.91075 4.59041L5.02659 3.70625ZM16.2224 2.52791C16.3786 2.68418 16.4664 2.89611 16.4664 3.11708C16.4664 3.33805 16.3786 3.54997 16.2224 3.70625L15.3383 4.58999C15.2614 4.66959 15.1694 4.73307 15.0678 4.77675C14.9661 4.82042 14.8567 4.84341 14.7461 4.84437C14.6354 4.84533 14.5257 4.82425 14.4233 4.78235C14.3209 4.74045 14.2278 4.67857 14.1496 4.60032C14.0713 4.52208 14.0095 4.42904 13.9676 4.32662C13.9257 4.22421 13.9046 4.11448 13.9055 4.00383C13.9065 3.89318 13.9295 3.78383 13.9732 3.68216C14.0168 3.58049 14.0803 3.48853 14.1599 3.41166L15.0437 2.52791C15.1211 2.45049 15.2129 2.38908 15.3141 2.34718C15.4152 2.30528 15.5236 2.28371 15.633 2.28371C15.7425 2.28371 15.8509 2.30528 15.952 2.34718C16.0531 2.38908 16.145 2.45049 16.2224 2.52791Z" fill="white"/>
</svg>
