<svg width="16" height="16" viewBox="0 0 16 16" fill="none" xmlns="http://www.w3.org/2000/svg">
<path fill-rule="evenodd" clip-rule="evenodd" d="M7.99981 14.6668C9.20408 14.6669 10.3859 14.3408 11.4197 13.723C12.4534 13.1053 13.3006 12.219 13.8711 11.1584C14.4416 10.0978 14.7141 8.90238 14.6598 7.69926C14.6054 6.49614 14.2262 5.33021 13.5624 4.32535L8.26276 10.2142C8.01521 10.4894 7.67366 10.6619 7.30533 10.6978C6.93699 10.7337 6.56855 10.6304 6.27253 10.4083L3.85196 8.59276C3.6948 8.47488 3.59091 8.2994 3.56313 8.10492C3.53535 7.91044 3.58595 7.71288 3.70382 7.55572C3.82169 7.39855 3.99715 7.29465 4.19162 7.26687C4.38609 7.23908 4.58363 7.2897 4.74078 7.40757L7.16135 9.22313L12.6025 3.17794C11.8142 2.42543 10.8535 1.87764 9.80451 1.58255C8.75548 1.28745 7.65012 1.25405 6.58519 1.48525C5.52027 1.71646 4.52826 2.20523 3.69602 2.90876C2.86378 3.6123 2.2167 4.50915 1.81142 5.52079C1.40614 6.53242 1.25503 7.62799 1.37132 8.71158C1.48761 9.79516 1.86775 10.8337 2.47846 11.7363C3.08916 12.6389 3.91182 13.378 4.87438 13.8889C5.83695 14.3998 6.91008 14.6669 7.99981 14.6668Z" fill="#04B440"/>
</svg>
