<svg width="24" height="24" viewBox="0 0 24 24" fill="none" xmlns="http://www.w3.org/2000/svg">
<path d="M17.0629 8.64178C18.5951 9.74619 20.4722 10.396 22.4994 10.396V6.4625C22.1157 6.46265 21.7331 6.42226 21.3577 6.342V9.43825C19.3306 9.43825 17.4538 8.78851 15.9213 7.68418V15.7114C15.9213 19.7271 12.6929 22.9822 8.71077 22.9822C7.22494 22.9822 5.84386 22.5293 4.69666 21.7524C6.00604 23.1024 7.83205 23.9399 9.85216 23.9399C13.8346 23.9399 17.0631 20.6848 17.0631 16.669V8.64178H17.0629ZM18.4714 4.67334C17.6884 3.81075 17.1742 2.69599 17.0629 1.46355V0.957642H15.981C16.2534 2.52401 17.1824 3.86222 18.4714 4.67334ZM7.21534 18.671C6.77782 18.0926 6.54133 17.385 6.54244 16.6574C6.54244 14.8209 8.01908 13.3317 9.84092 13.3317C10.1804 13.3315 10.5178 13.3841 10.8415 13.4875V9.46605C10.4633 9.41383 10.0817 9.39157 9.70023 9.39977V12.5299C9.37647 12.4264 9.03883 12.3738 8.69921 12.3741C6.87746 12.3741 5.40089 13.8631 5.40089 15.6999C5.40089 16.9987 6.13893 18.1232 7.21534 18.671Z" fill="#FF004F"/>
<path d="M15.9213 7.6841C17.4539 8.78843 19.3305 9.43817 21.3577 9.43817V6.34192C20.2261 6.09886 19.2245 5.50266 18.4713 4.67334C17.1822 3.86214 16.2534 2.52393 15.981 0.957642H13.1392V16.6688C13.1327 18.5004 11.6586 19.9834 9.84075 19.9834C8.76958 19.9834 7.81786 19.4686 7.21517 18.6709C6.13892 18.1232 5.4008 16.9987 5.4008 15.7C5.4008 13.8634 6.87737 12.3742 8.69912 12.3742C9.04816 12.3742 9.38457 12.429 9.70014 12.5299V9.39985C5.78791 9.48137 2.6416 12.7046 2.6416 16.6689C2.6416 18.6478 3.42508 20.4418 4.69673 21.7526C5.84394 22.5293 7.22493 22.9824 8.71085 22.9824C12.6931 22.9824 15.9214 19.727 15.9214 15.7114L15.9213 7.6841Z" fill="black"/>
<path d="M21.3577 6.34179V5.50477C20.3373 5.50627 19.3371 5.21813 18.4714 4.6733C19.2377 5.51927 20.2468 6.10265 21.3577 6.34196M15.981 0.957517C15.955 0.807854 15.9351 0.657193 15.9213 0.505903V0H11.9974V15.7113C11.9911 17.5428 10.517 19.0258 8.69906 19.0258C8.18368 19.0266 7.67534 18.905 7.21512 18.671C7.8178 19.4686 8.76953 19.9833 9.84069 19.9833C11.6585 19.9833 13.1328 18.5004 13.1392 16.6688V0.9576L15.981 0.957517ZM9.70034 9.39972V8.5085C9.37245 8.46333 9.04189 8.44072 8.71096 8.4408C4.72834 8.4408 1.5 11.696 1.5 15.7113C1.5 18.2287 2.76878 20.4473 4.69684 21.7524C3.42519 20.4416 2.64171 18.6476 2.64171 16.6687C2.64171 12.7046 5.78794 9.48124 9.70034 9.39972Z" fill="#00F2EA"/>
</svg>
