<svg width="151" height="172" viewBox="0 0 151 172" fill="none" xmlns="http://www.w3.org/2000/svg">
<path fill-rule="evenodd" clip-rule="evenodd" d="M55.699 55.5604C53.4666 57.5361 52.1172 61.1602 43.4278 60.2006C34.7393 59.2417 29.9207 65.773 33.0822 73.9206C36.2461 82.0785 48.3607 91.4958 57.8946 82.3383C63.8944 76.5781 57.9322 53.5848 55.699 55.5604Z" fill="black"/>
<path fill-rule="evenodd" clip-rule="evenodd" d="M30.8491 52.7573C29.1122 55.1799 28.6042 59.0138 19.9188 60.0126C11.2349 61.013 7.9912 68.4515 12.8873 75.6911C17.7889 82.9402 31.696 89.4229 38.9521 78.3736C43.5172 71.4228 32.586 50.3339 30.8491 52.7573Z" fill="black"/>
<path d="M59.3623 57.7122C61.9477 48.9415 56.888 39.7222 48.0625 37.1211C39.237 34.52 29.9872 39.521 27.4026 48.2918C24.8172 57.0625 29.8761 66.2817 38.7016 68.8828C47.5271 71.4839 56.7777 66.4829 59.3623 57.7122Z" fill="#0C0C0C"/>
<path d="M90.9432 129.039C88.101 129.039 85.2808 127.818 83.3286 125.457L63.1579 101.055C59.684 96.8527 60.2742 90.6291 64.4768 87.1552C68.6794 83.6814 74.9023 84.2715 78.3769 88.4741L98.5476 112.876C102.021 117.078 101.431 123.302 97.2287 126.776C95.3869 128.297 93.1584 129.039 90.9432 129.039Z" fill="white" stroke="black" stroke-width="0.692891" stroke-miterlimit="10"/>
<path d="M95.6561 105.355L81.0421 86.9755C79.1416 83.5494 75.6866 81.0493 71.5004 80.5366C64.5558 79.6865 58.2375 84.6272 57.3874 91.571C57.0782 94.0969 57.5385 96.5383 58.5788 98.6659L58.5224 98.7073L58.7517 99.0071C59.4171 100.27 60.2914 101.412 61.334 102.384L75.7805 121.271L95.6561 105.355ZM10.2212 142.798C9.07678 142.798 7.9144 142.598 6.77862 142.175C1.66804 140.273 -0.932262 134.589 0.969041 129.479L14.1983 93.9341C16.1004 88.8243 21.7847 86.2232 26.8953 88.1253C32.0059 90.0274 34.6062 95.7118 32.7049 100.822L19.4756 136.366C17.9955 140.341 14.2265 142.798 10.2212 142.798Z" fill="white" stroke="black" stroke-width="0.692891" stroke-miterlimit="10"/>
<path d="M35.5463 97.7552L35.479 97.7348C35.7452 95.3819 35.3585 92.9271 34.2196 90.6517C31.087 84.3959 23.4771 81.8637 17.2214 84.9963C13.4508 86.8843 11.0353 90.4004 10.3958 94.2649L2.80151 116.485L26.8664 124.802L34.1327 102.161C34.7886 100.896 35.2285 99.5265 35.4321 98.1137L35.5463 97.7552Z" fill="white" stroke="black" stroke-width="0.692891" stroke-miterlimit="10"/>
<path d="M21.3175 171.094L80.3197 170.98L77.0189 138.036L23.0247 144.817L21.3175 171.094Z" fill="black"/>
<path d="M21.6823 146.552L79.5894 142.696L69.0645 80.4717L22.5832 83.5072L21.6823 146.552Z" fill="white" stroke="black" stroke-width="0.692891" stroke-miterlimit="10"/>
<path d="M79.5895 142.696L75.4205 118.047" stroke="black" stroke-width="0.589177" stroke-miterlimit="10" stroke-linecap="round" stroke-linejoin="round"/>
<path d="M22.3225 123.674V105.779" stroke="black" stroke-width="0.589177" stroke-miterlimit="10" stroke-linecap="round" stroke-linejoin="round"/>
<path d="M46.717 90.3445C42.631 90.1057 39.5556 86.5301 39.9298 82.4543L40.725 73.7963C40.8064 72.9102 41.5759 72.2488 42.4635 72.3013L53.0463 72.9204C53.934 72.9721 54.6212 73.7188 54.5985 74.608L54.3786 83.2997C54.2745 87.3911 50.803 90.584 46.717 90.3445Z" fill="white" stroke="black" stroke-width="0.692891" stroke-miterlimit="10"/>
<path fill-rule="evenodd" clip-rule="evenodd" d="M35.9603 66.0222L31.447 66.8887C29.2748 67.3059 27.1771 65.8828 26.7599 63.7107C26.3427 61.5386 27.7657 59.4408 29.9378 59.0236L34.4512 58.1571C36.6233 57.7399 38.7211 59.1629 39.1383 61.3351C39.5547 63.5064 38.1325 65.605 35.9603 66.0222Z" fill="white" stroke="black" stroke-width="0.692891" stroke-miterlimit="10"/>
<path d="M30.9297 65.0982C30.4647 65.1358 30.0037 65.0145 29.6115 64.7491C29.1552 64.4399 28.8468 63.9718 28.7435 63.431C28.6394 62.8901 28.7529 62.3406 29.0621 61.885C29.3712 61.4287 29.8393 61.1203 30.3802 61.0169C30.4953 60.995 30.6103 61.071 30.633 61.1884C30.6557 61.3058 30.579 61.4185 30.4616 61.4412C30.0342 61.5234 29.664 61.7668 29.419 62.1277C29.1748 62.4885 29.0855 62.9222 29.1677 63.3503C29.2499 63.7785 29.4933 64.1487 29.8542 64.393C30.215 64.6372 30.6487 64.7272 31.0769 64.645C31.1919 64.6231 31.307 64.699 31.3297 64.8164C31.3524 64.9338 31.2757 65.0466 31.1583 65.0693C31.0823 65.0818 31.0064 65.092 30.9297 65.0982Z" fill="black"/>
<path d="M49.1544 78.5782C56.3612 77.1943 61.0021 69.935 59.4953 62.3807L57.1142 50.3686C55.6348 42.8119 48.5877 37.8399 41.3801 39.2238C34.1733 40.6077 29.5324 47.8669 31.0392 55.4213L33.4196 67.4334C34.8997 74.9908 41.9468 79.9621 49.1544 78.5782Z" fill="white" stroke="black" stroke-width="0.692891" stroke-miterlimit="10"/>
<path d="M51.3031 77.9667C51.3031 77.9667 58.2367 75.2764 59.6958 68.0962" stroke="black" stroke-width="0.589177" stroke-miterlimit="10" stroke-linecap="round" stroke-linejoin="round"/>
<path d="M5.39863 117.384L3.17249 123.559L21.8482 123.248L5.39863 117.384Z" fill="black"/>
<path d="M90.4048 109.56L87.7638 109.077L80.5014 121.874L78.4122 119.319L90.4048 109.56Z" fill="black"/>
<path d="M58.7041 52.2433C58.7041 52.2433 53.1701 53.6742 44.9942 46.1105C44.9942 46.1105 41.7106 54.5337 29.1028 56.7911L28.8656 55.2311C27.6641 47.0803 33.3148 39.4868 41.5071 38.2681C49.7017 37.029 57.3179 42.6609 58.4975 50.8305L58.7041 52.2433Z" fill="#0C0C0C"/>
<path d="M150.166 35.6371C150.166 26.0774 141.87 18.3195 131.602 18.235C130.417 7.98328 121.075 0 109.725 0C98.3755 0 89.0342 7.98249 87.8483 18.2334C87.8389 18.2334 87.8287 18.2334 87.8193 18.2334C77.4729 18.2334 69.085 26.0257 69.085 35.6379C69.085 45.2501 77.4721 53.0424 87.8193 53.0424C88.0244 53.0424 88.2287 53.0384 88.4322 53.0322C103.816 54.2728 119.504 54.2204 135.497 52.8584V52.6306C143.889 50.9054 150.166 43.953 150.166 35.6371Z" fill="#7239EA"/>
<path d="M75.3148 48.0697C75.3148 44.4151 91.1436 42.5161 110.093 42.5161C129.043 42.5161 144.405 44.3219 144.405 47.9766C144.405 51.6313 129.044 55.7509 110.093 55.7509C91.1428 55.7509 75.3148 51.7244 75.3148 48.0697Z" fill="#6130C7"/>
<path d="M75.3148 48.0697C75.3148 44.4151 91.1436 42.5161 110.093 42.5161C129.043 42.5161 144.405 44.3219 144.405 47.9766C144.405 51.6313 129.044 55.7509 110.093 55.7509C91.1428 55.7509 75.3148 51.7244 75.3148 48.0697Z" fill="black" fill-opacity="0.2"/>
<mask id="mask0_56_1026" style="mask-type:luminance" maskUnits="userSpaceOnUse" x="75" y="42" width="70" height="18">
<path d="M75.3148 48.813C75.3148 44.2042 91.1436 42.5166 110.093 42.5166C129.043 42.5166 144.659 44.1604 144.659 48.7692C144.659 53.3781 129.043 59.2056 110.093 59.2056C91.1436 59.2056 75.3148 53.4211 75.3148 48.813Z" fill="white"/>
</mask>
<g mask="url(#mask0_56_1026)">
<path d="M75.3148 42.3995C75.3148 37.7906 91.1436 35.397 110.093 35.397C129.043 35.397 144.405 37.674 144.405 42.2828C144.405 46.8917 129.044 52.086 110.093 52.086C91.1428 52.086 75.3148 47.0083 75.3148 42.3995Z" fill="#0F0F0F"/>
</g>
<path d="M50.4781 65.9201C50.3959 69.1216 45.3871 68.9916 45.4435 65.7902C45.4724 64.4376 46.5777 65.4669 47.9686 65.5029C49.3596 65.5389 50.5071 64.5675 50.4781 65.9201Z" fill="#0C0C0C"/>
<path d="M42.487 59.886C43.1592 59.886 43.7041 59.3411 43.7041 58.6688C43.7041 57.9966 43.1592 57.4517 42.487 57.4517C41.8147 57.4517 41.2698 57.9966 41.2698 58.6688C41.2698 59.3411 41.8147 59.886 42.487 59.886Z" fill="#0C0C0C"/>
<path d="M52.8123 58.722C53.4845 58.722 54.0294 58.177 54.0294 57.5048C54.0294 56.8326 53.4845 56.2876 52.8123 56.2876C52.14 56.2876 51.5951 56.8326 51.5951 57.5048C51.5951 58.177 52.14 58.722 52.8123 58.722Z" fill="#0C0C0C"/>
<path d="M117.537 87.4027C117.996 86.6067 117.769 85.5922 117.014 85.0678C116.198 84.5003 115.075 84.7171 114.528 85.5468L112.721 87.7495L115.791 82.8001C116.326 81.9383 116.06 80.8057 115.198 80.2711C114.356 79.749 113.252 79.9885 112.701 80.8127L109.876 84.123L112.46 79.7255C113.051 78.7181 112.726 77.4226 111.728 76.8152C110.744 76.2164 109.462 76.5045 108.828 77.4673L105.461 82.5872L107.626 77.551C108.043 76.5812 107.611 75.4564 106.653 75.0141C105.695 74.5726 104.559 74.9742 104.092 75.9205L97.0143 85.1672L93.8113 91.6985C93.6406 91.9904 93.4825 92.2934 93.3416 92.6088L83.1001 115.513C81.0086 120.191 83.1048 125.679 87.7833 127.772C89.0138 128.322 90.2998 128.582 91.5656 128.582C95.113 128.582 98.5 126.536 100.042 123.089L110.283 100.185C110.305 100.139 110.322 100.091 110.342 100.045L110.975 98.7972L117.537 87.4027Z" fill="white"/>
<path d="M84.2452 126.426C86.7132 128.666 89.5977 129.291 91.9663 128.986C95.4848 128.535 98.5007 126.535 100.042 123.087L110.283 100.183C110.305 100.137 110.322 100.089 110.342 100.043L110.975 98.7949L117.538 87.4027C117.997 86.6067 117.77 85.5922 117.015 85.0678C116.199 84.5003 115.075 84.7171 114.528 85.5468L112.722 87.7495L115.792 82.8001C116.326 81.9383 116.061 80.8057 115.199 80.2711C114.357 79.749 113.252 79.9885 112.702 80.8127L109.877 84.123L112.46 79.7255C113.052 78.7181 112.726 77.4226 111.728 76.8152C110.744 76.2164 109.462 76.5045 108.829 77.4673L105.462 82.5872L107.627 77.551C108.044 76.5812 107.612 75.4564 106.654 75.0141C105.696 74.5726 104.56 74.9742 104.093 75.9205L97.015 85.1672L93.812 91.6985C93.6414 91.9904 93.4833 92.2934 93.3424 92.6088L81.969 118.044" stroke="black" stroke-width="0.692891" stroke-miterlimit="10"/>
<path d="M114.887 100.839L137.324 91.7867C139.457 90.9264 140.487 88.5007 139.627 86.3685L127.814 57.0873C126.954 54.9551 124.528 53.9242 122.396 54.7845L105.685 61.5263L100.057 74.4041L109.468 98.5363C110.329 100.669 112.755 101.699 114.887 100.839Z" fill="#DBE7FF"/>
<path d="M99.8712 74.4793L105.685 61.5264L108.899 69.4901C109.152 70.1186 108.824 70.8309 108.182 71.047L99.8712 74.4793ZM110.762 87.329L109.779 87.7258L110.687 89.977L109.512 90.4514L107.146 84.5886L109.305 83.7174C110.716 83.1483 111.744 83.661 112.153 84.6778C112.513 85.5678 112.274 86.7184 110.762 87.329ZM110.329 86.3999C110.993 86.1322 111.155 85.686 110.944 85.1655C110.727 84.6277 110.305 84.4273 109.641 84.695L108.708 85.0715L109.397 86.7764L110.329 86.3999ZM118.581 83.3933C119.296 85.1655 118.542 86.8077 116.669 87.5638L114.62 88.3904L112.254 82.5276L114.304 81.701C116.176 80.9449 117.862 81.6125 118.581 83.3933ZM116.223 86.5807C117.457 86.0828 117.87 85.0958 117.379 83.8778C116.887 82.6599 115.896 82.2106 114.661 82.7084L113.829 83.0442L115.392 86.9165L116.223 86.5807ZM118.276 80.0971L121.896 78.6365L122.279 79.586L119.834 80.5723L120.441 82.0759L122.314 81.3206L122.691 82.2528L120.818 83.0082L121.817 85.4864L120.642 85.9607L118.276 80.0971Z" fill="#2B60CF"/>
<path d="M128.646 86.2599L110.774 93.4688L111.225 94.5859L129.097 87.3771L128.646 86.2599Z" fill="#2B60CF"/>
<path d="M129.623 88.6803L111.751 95.8892L112.202 97.0064L130.074 89.7975L129.623 88.6803Z" fill="#2B60CF"/>
<path d="M108.637 79.5453C108.24 78.5332 107.132 77.997 106.092 78.3132L101.648 79.665C101.463 79.7214 101.296 79.8075 101.151 79.9163C100.998 80.0306 100.88 81.0771 100.779 81.2329C100.779 81.2329 98.6494 85.2053 98.215 86.0491L101.851 87.8322L107.911 82C108.686 81.4458 108.986 80.4337 108.637 79.5453Z" fill="white"/>
<path d="M101.686 87.9904L107.909 82.0007C108.686 81.4458 108.986 80.4337 108.637 79.5453C108.24 78.5332 107.131 77.997 106.091 78.3132L101.647 79.665C101.462 79.7214 101.295 79.8075 101.15 79.9163C100.998 80.0306 100.87 80.1707 100.768 80.3265" stroke="black" stroke-width="0.589177" stroke-miterlimit="10" stroke-linecap="round" stroke-linejoin="round"/>
<path d="M58.2884 110.207L61.0789 114.464C61.5861 115.238 62.4104 115.655 63.2925 115.587L86.7508 113.742C88.2646 113.623 89.4787 114.921 89.4622 116.642L89.139 151.164C89.1225 152.885 87.8826 154.377 86.3688 154.496L30.525 158.889C29.0111 159.008 27.7971 157.71 27.8135 155.988L28.2033 114.392C28.2198 112.671 29.4596 111.179 30.9735 111.06L56.0755 109.086C56.9569 109.015 57.7804 109.433 58.2884 110.207Z" fill="#FF8200"/>
<path d="M49.2389 116.241L52.8012 119.925C53.4486 120.595 54.3558 120.95 55.238 120.881L78.6962 119.036C80.2101 118.917 81.6644 120.037 81.9446 121.539L87.5687 151.644C87.8489 153.145 86.8494 154.459 85.3355 154.578L29.4917 158.971C27.9779 159.089 26.5235 157.969 26.2433 156.468L19.467 120.193C19.1868 118.692 20.1863 117.378 21.7002 117.259L46.8022 115.285C47.6844 115.215 48.5916 115.571 49.2389 116.241Z" fill="#FFA400"/>
<path d="M59.2895 138.373L50.4773 135.752L52.9156 132.432C53.5152 131.616 53.386 130.476 52.6197 129.815C51.9465 129.234 50.965 129.184 50.2378 129.695L46.1565 132.558L42.3375 131.462C42.0557 131.359 41.7653 131.269 41.4678 131.194C41.4678 131.194 41.2839 131.148 40.9473 131.063L39.6393 130.687L39.6268 130.731C33.2192 129.123 12.2595 123.862 12.2595 123.862C6.80056 122.468 1.22033 126.105 0.304508 131.668C-0.593307 136.963 2.97213 141.983 8.26666 142.881L36.2931 147.632L41.4757 149.247L51.0511 152.631C51.8581 152.916 52.7488 152.536 53.1011 151.756C53.4823 150.912 53.094 149.92 52.2408 149.559L49.9176 148.278L54.9711 150.251C55.8517 150.594 56.8434 150.159 57.187 149.279C57.5228 148.42 57.1158 147.448 56.2673 147.084L52.7567 145.059L57.2223 146.68C58.2453 147.051 59.3764 146.533 59.7639 145.516C60.1458 144.513 59.6644 143.387 58.6758 142.971L53.4165 140.754L58.3956 141.884C59.3545 142.101 60.3118 141.515 60.5536 140.563C60.7955 139.613 60.2351 138.641 59.2895 138.373Z" fill="white"/>
<path d="M1.79411 127.262C-2.13843 135.417 2.97137 141.985 8.2659 142.883L36.2923 147.633L41.4749 149.249L51.0503 152.633C51.8573 152.918 52.7481 152.538 53.1003 151.758C53.4815 150.914 53.0933 149.922 52.2401 149.561L49.9169 148.28L54.9703 150.253C55.8509 150.596 56.8427 150.161 57.1863 149.281C57.5221 148.422 57.1151 147.45 56.2666 147.086L52.7559 145.061L57.2215 146.682C58.2446 147.053 59.3756 146.534 59.7631 145.518C60.1451 144.515 59.6637 143.389 58.6751 142.973L53.4158 140.756L58.3949 141.886C59.3537 142.103 60.311 141.517 60.5529 140.564C60.7948 139.612 60.2343 138.64 59.2888 138.373L50.4765 135.751L52.9148 132.432C53.5144 131.615 53.3852 130.476 52.6189 129.814C51.9458 129.233 50.9642 129.184 50.237 129.694L46.1558 132.558L42.3367 131.462C42.0549 131.359 41.7645 131.268 41.4671 131.193C41.4671 131.193 41.2831 131.147 40.9465 131.063L39.6386 130.687L39.626 130.731C33.2184 129.122 12.2587 123.861 12.2587 123.861" stroke="black" stroke-width="0.692891" stroke-miterlimit="10"/>
<path d="M47.5201 61.1373L48.2731 61.1256C48.9025 61.1397 49.4183 61.5874 49.4371 62.1189C49.4527 62.324 49.369 62.5181 49.2069 62.6817C49.0206 62.8836 48.7224 62.9901 48.3968 62.9924L47.805 63.0034C47.6845 62.9893 47.5906 63.0997 47.596 63.2226C47.582 63.3431 47.6923 63.4378 47.7949 63.4292L47.8097 63.4715C47.8097 63.4715 47.8097 63.4715 47.8293 63.4738L48.4211 63.4629C48.8492 63.4527 49.2539 63.2977 49.5326 63.005C49.7643 62.7678 49.8832 62.4563 49.8817 62.1306C49.8699 61.3761 49.149 60.7616 48.299 60.7217L47.5248 60.7272C47.5264 60.7279 47.319 60.9268 47.5201 61.1373Z" fill="black" stroke="black" stroke-width="0.431687" stroke-miterlimit="10" stroke-linecap="round" stroke-linejoin="round"/>
</svg>
